<svg width="133" height="40" viewBox="0 0 133 40" fill="none" xmlns="http://www.w3.org/2000/svg">
<g clip-path="url(#clip0_5370_58013)">
<path d="M0 5.33333C0 2.38781 2.3536 0 5.25692 0H127.743C130.646 0 133 2.38782 133 5.33333V34.6667C133 37.6122 130.646 40 127.743 40H5.25692C2.3536 40 0 37.6122 0 34.6667V5.33333Z" fill="#23282E"/>
<path fill-rule="evenodd" clip-rule="evenodd" d="M16.6005 7.33301C11.4706 7.33301 9.59424 9.23627 9.59424 14.4397V25.5596C9.59424 30.7631 11.4706 32.6663 16.6005 32.6663H27.555C32.6848 32.6663 34.5646 30.7631 34.5646 25.5596V14.4397C34.5646 9.23627 32.6883 7.33301 27.5583 7.33301H16.6005Z" fill="url(#paint0_linear_5370_58013)"/>
<path fill-rule="evenodd" clip-rule="evenodd" d="M20.4866 22.0252H21.4891L20.9862 20.8385L20.4866 22.0252ZM20.2398 22.6232L19.9423 23.3136H19.2652L20.7052 19.9992H21.2904L22.7246 23.3136H22.0294L21.7357 22.6232H20.2398ZM31.1361 23.3112H31.7905V19.999H31.1361V23.3112ZM28.5313 21.8883H29.7376V21.2844H28.5313V20.6056H30.2825V20.0015H27.877V23.3134H30.3455V22.7093H28.5313V21.8883ZM25.9309 22.2797L25.1889 19.999H24.6474L23.9054 22.2797L23.1834 20.0009H22.4773L23.6169 23.3154H24.1658L24.9089 21.1382L25.6521 23.3154H26.2058L27.3423 20.0009H26.6546L25.9309 22.2797ZM18.2661 21.8975C18.2661 22.4367 18.0022 22.7248 17.523 22.7248C17.0411 22.7248 16.7758 22.4283 16.7758 21.8745V20.0013H16.1125V21.8975C16.1125 22.8302 16.6235 23.3651 17.5139 23.3651C18.4132 23.3651 18.9288 22.8201 18.9288 21.8698V19.9992H18.2661V21.8975ZM14.53 19.9992H15.1929V23.3157H14.53V21.9688H13.0324V23.3157H12.3691V19.9992H13.0324V21.337H14.53V19.9992Z" fill="white"/>
<path fill-rule="evenodd" clip-rule="evenodd" d="M22.0797 15.7779C19.7847 15.7779 17.918 13.8838 17.918 11.5557H18.5058C18.5058 13.5548 20.1092 15.1813 22.0797 15.1813C24.0502 15.1813 25.6536 13.5548 25.6536 11.5557H26.2414C26.2414 13.8838 24.3745 15.7779 22.0797 15.7779Z" fill="white"/>
<path d="M47.8974 29.8662L46.7731 26.6943H42.4685L41.3673 29.8662H39.4268L43.639 18.3975H45.6411L49.8533 29.8662H47.8974ZM46.288 25.085L45.233 21.9756C45.156 21.7673 45.0482 21.4391 44.9096 20.9912C44.7761 20.5433 44.6837 20.2152 44.6323 20.0068C44.4937 20.6475 44.2909 21.348 44.024 22.1084L43.0075 25.085H46.288Z" fill="white"/>
<path d="M55.2305 30.0225C54.1524 30.0225 53.3156 29.6292 52.7201 28.8428H52.6123C52.6841 29.5719 52.7201 30.0146 52.7201 30.1709V33.71H50.9105V21.2256H52.3736C52.4146 21.387 52.4993 21.7725 52.6277 22.3818H52.7201C53.2848 21.5068 54.1319 21.0693 55.2613 21.0693C56.3239 21.0693 57.1505 21.46 57.7409 22.2412C58.3364 23.0225 58.6341 24.1188 58.6341 25.5303C58.6341 26.9417 58.3312 28.0433 57.7255 28.835C57.1248 29.6266 56.2931 30.0225 55.2305 30.0225ZM54.7915 22.5693C54.0728 22.5693 53.5466 22.7829 53.2129 23.21C52.8844 23.637 52.7201 24.3193 52.7201 25.2568V25.5303C52.7201 26.5824 52.8844 27.3454 53.2129 27.8193C53.5415 28.2881 54.078 28.5225 54.8223 28.5225C55.4487 28.5225 55.9312 28.262 56.27 27.7412C56.6089 27.2204 56.7783 26.4782 56.7783 25.5146C56.7783 24.5459 56.6089 23.8141 56.27 23.3193C55.9364 22.8193 55.4435 22.5693 54.7915 22.5693Z" fill="white"/>
<path d="M64.8198 30.0225C63.7417 30.0225 62.905 29.6292 62.3094 28.8428H62.2016C62.2735 29.5719 62.3094 30.0146 62.3094 30.1709V33.71H60.4998V21.2256H61.9629C62.004 21.387 62.0887 21.7725 62.217 22.3818H62.3094C62.8741 21.5068 63.7212 21.0693 64.8506 21.0693C65.9133 21.0693 66.7398 21.46 67.3302 22.2412C67.9257 23.0225 68.2235 24.1188 68.2235 25.5303C68.2235 26.9417 67.9206 28.0433 67.3148 28.835C66.7142 29.6266 65.8825 30.0225 64.8198 30.0225ZM64.3809 22.5693C63.6622 22.5693 63.136 22.7829 62.8023 23.21C62.4737 23.637 62.3094 24.3193 62.3094 25.2568V25.5303C62.3094 26.5824 62.4737 27.3454 62.8023 27.8193C63.1308 28.2881 63.6673 28.5225 64.4117 28.5225C65.038 28.5225 65.5206 28.262 65.8594 27.7412C66.1982 27.2204 66.3676 26.4782 66.3676 25.5146C66.3676 24.5459 66.1982 23.8141 65.8594 23.3193C65.5257 22.8193 65.0329 22.5693 64.3809 22.5693Z" fill="white"/>
<path d="M74.8866 23.6709H79.0295V29.4053C78.3519 29.6292 77.6999 29.7881 77.0736 29.8818C76.4524 29.9756 75.7799 30.0225 75.056 30.0225C73.3516 30.0225 72.0374 29.512 71.1133 28.4912C70.1893 27.4652 69.7272 26.0199 69.7272 24.1553C69.7272 22.3167 70.2483 20.8792 71.2905 19.8428C72.3326 18.8011 73.7675 18.2803 75.5951 18.2803C76.7707 18.2803 77.8847 18.5094 78.9371 18.9678L78.2903 20.5225C77.3765 20.0954 76.4627 19.8818 75.5489 19.8818C74.3476 19.8818 73.3978 20.2646 72.6997 21.0303C72.0015 21.7959 71.6524 22.8428 71.6524 24.1709C71.6524 25.5667 71.9655 26.6292 72.5919 27.3584C73.2233 28.0824 74.1294 28.4443 75.3102 28.4443C75.9057 28.4443 76.5422 28.3688 77.2199 28.2178V25.2725H74.8866V23.6709Z" fill="white"/>
<path d="M86.6398 29.8662L86.2779 28.6631H86.2163C85.8056 29.1891 85.3923 29.5485 84.9765 29.7412C84.5607 29.9287 84.0268 30.0225 83.3748 30.0225C82.538 30.0225 81.8834 29.7933 81.4111 29.335C80.944 28.8766 80.7104 28.2282 80.7104 27.3896C80.7104 26.499 81.0364 25.8271 81.6884 25.374C82.3404 24.9209 83.3337 24.6735 84.6685 24.6318L86.1393 24.585V24.124C86.1393 23.5719 86.011 23.1605 85.7543 22.8896C85.5027 22.6136 85.11 22.4756 84.5761 22.4756C84.1397 22.4756 83.7213 22.5407 83.3209 22.6709C82.9205 22.8011 82.5354 22.9548 82.1658 23.1318L81.5806 21.8193C82.0426 21.5745 82.5483 21.3896 83.0976 21.2646C83.6469 21.1344 84.1654 21.0693 84.6531 21.0693C85.7363 21.0693 86.5526 21.3089 87.1019 21.7881C87.6563 22.2673 87.9335 23.0199 87.9335 24.0459V29.8662H86.6398ZM83.9446 28.6162C84.6017 28.6162 85.128 28.4313 85.5232 28.0615C85.9237 27.6865 86.1239 27.1631 86.1239 26.4912V25.7412L85.0304 25.7881C84.1782 25.8193 83.557 25.9652 83.1669 26.2256C82.7818 26.4808 82.5893 26.874 82.5893 27.4053C82.5893 27.7907 82.7023 28.0902 82.9282 28.3037C83.154 28.512 83.4929 28.6162 83.9446 28.6162Z" fill="white"/>
<path d="M92.0324 29.8662H90.2227V17.71H92.0324V29.8662Z" fill="white"/>
<path d="M96.2005 29.8662H94.3909V17.71H96.2005V29.8662Z" fill="white"/>
<path d="M102.278 30.0225C100.954 30.0225 99.9169 29.6318 99.1674 28.8506C98.423 28.0641 98.0508 26.9834 98.0508 25.6084C98.0508 24.1969 98.3974 23.0876 99.0904 22.2803C99.7835 21.473 100.736 21.0693 101.947 21.0693C103.072 21.0693 103.96 21.4157 104.612 22.1084C105.264 22.8011 105.59 23.7542 105.59 24.9678V25.96H99.9144C99.94 26.7985 100.163 27.4443 100.584 27.8975C101.005 28.3454 101.598 28.5693 102.363 28.5693C102.866 28.5693 103.333 28.5225 103.765 28.4287C104.201 28.3298 104.668 28.1683 105.166 27.9443V29.4365C104.725 29.6501 104.278 29.8011 103.826 29.8896C103.374 29.9782 102.859 30.0225 102.278 30.0225ZM101.947 22.46C101.372 22.46 100.91 22.6449 100.561 23.0146C100.217 23.3844 100.012 23.9235 99.9452 24.6318H103.811C103.801 23.9183 103.631 23.3792 103.303 23.0146C102.974 22.6449 102.522 22.46 101.947 22.46Z" fill="white"/>
<path d="M111.729 21.0693C112.094 21.0693 112.394 21.0954 112.63 21.1475L112.453 22.8584C112.196 22.7959 111.929 22.7646 111.652 22.7646C110.928 22.7646 110.341 23.0042 109.889 23.4834C109.442 23.9626 109.219 24.585 109.219 25.3506V29.8662H107.409V21.2256H108.826L109.065 22.749H109.157C109.44 22.2334 109.807 21.8245 110.258 21.5225C110.715 21.2204 111.206 21.0693 111.729 21.0693Z" fill="white"/>
<path d="M112.686 21.2256H114.658L116.39 26.124C116.652 26.8219 116.827 27.4782 116.914 28.0928H116.975C117.022 27.8063 117.106 27.46 117.23 27.0537C117.353 26.6423 118.005 24.6995 119.185 21.2256H121.141L117.499 31.0146C116.837 32.8115 115.733 33.71 114.188 33.71C113.787 33.71 113.397 33.6657 113.017 33.5771V32.124C113.289 32.1865 113.6 32.2178 113.949 32.2178C114.822 32.2178 115.435 31.7048 115.79 30.6787L116.105 29.8662L112.686 21.2256Z" fill="white"/>
<path d="M45.168 11.2695C45.168 12.1992 44.9382 12.9219 44.4788 13.4375C44.0219 13.9531 43.3737 14.2109 42.5344 14.2109C41.6847 14.2109 41.0315 13.9557 40.5746 13.4453C40.1202 12.9323 39.8931 12.2044 39.8931 11.2617C39.8931 10.319 40.1215 9.59505 40.5784 9.08984C41.0379 8.58464 41.6924 8.33203 42.5421 8.33203C43.3789 8.33203 44.0257 8.58854 44.4826 9.10156C44.9395 9.61458 45.168 10.3372 45.168 11.2695ZM40.871 11.2695C40.871 11.9727 41.0109 12.5065 41.2907 12.8711C41.5705 13.2331 41.9851 13.4141 42.5344 13.4141C43.0811 13.4141 43.4931 13.2344 43.7703 12.875C44.0501 12.5156 44.19 11.9805 44.19 11.2695C44.19 10.569 44.0514 10.0378 43.7741 9.67578C43.4995 9.3138 43.0888 9.13281 42.5421 9.13281C41.9902 9.13281 41.5731 9.3138 41.2907 9.67578C41.0109 10.0378 40.871 10.569 40.871 11.2695Z" fill="white"/>
<path d="M48.3213 14.1328H47.4011V9.22266H45.7455V8.42188H49.977V9.22266H48.3213V14.1328Z" fill="white"/>
<path d="M55.1633 14.1328H54.0814L51.7635 11.2383V14.1328H50.8433V8.42188H51.7635V11.1875L54.0429 8.42188H55.0516L52.78 11.1797L55.1633 14.1328Z" fill="white"/>
<path d="M59.6373 10.1484C59.6373 10.7448 59.4448 11.2018 59.0598 11.5195C58.6747 11.8372 58.1267 11.9961 57.4157 11.9961H56.8305V14.1328H55.9102V8.42188H57.5312C58.2345 8.42188 58.7607 8.56771 59.1098 8.85938C59.4615 9.15104 59.6373 9.58073 59.6373 10.1484ZM56.8305 11.2109H57.3194C57.7917 11.2109 58.1383 11.1276 58.359 10.9609C58.5798 10.7943 58.6901 10.5339 58.6901 10.1797C58.6901 9.85156 58.5913 9.60677 58.3937 9.44531C58.196 9.28385 57.888 9.20313 57.4696 9.20313H56.8305V11.2109Z" fill="white"/>
<path d="M65.7593 11.2695C65.7593 12.1992 65.5295 12.9219 65.0701 13.4375C64.6132 13.9531 63.965 14.2109 63.1257 14.2109C62.276 14.2109 61.6228 13.9557 61.1659 13.4453C60.7115 12.9323 60.4844 12.2044 60.4844 11.2617C60.4844 10.319 60.7128 9.59505 61.1697 9.08984C61.6292 8.58464 62.2837 8.33203 63.1334 8.33203C63.9702 8.33203 64.617 8.58854 65.0739 9.10156C65.5308 9.61458 65.7593 10.3372 65.7593 11.2695ZM61.4623 11.2695C61.4623 11.9727 61.6022 12.5065 61.882 12.8711C62.1618 13.2331 62.5764 13.4141 63.1257 13.4141C63.6724 13.4141 64.0844 13.2344 64.3616 12.875C64.6414 12.5156 64.7813 11.9805 64.7813 11.2695C64.7813 10.569 64.6427 10.0378 64.3655 9.67578C64.0908 9.3138 63.6801 9.13281 63.1334 9.13281C62.5815 9.13281 62.1644 9.3138 61.882 9.67578C61.6022 10.0378 61.4623 10.569 61.4623 11.2695Z" fill="white"/>
<path d="M66.9682 8.42188H67.8115V11.3906C67.8115 11.7005 67.8038 12.0143 67.7884 12.332C67.773 12.6471 67.7614 12.8607 67.7537 12.9727H67.7884L70.6645 8.42188H71.7387V14.1328H70.8917V11.1875C70.8917 10.737 70.9161 10.1901 70.9648 9.54688H70.934L68.0463 14.1328H66.9682V8.42188ZM69.3824 7.96484C68.8382 7.96484 68.4391 7.86589 68.1849 7.66797C67.9334 7.46745 67.7935 7.13411 67.7653 6.66797H68.5854C68.6008 6.85547 68.6354 7.0013 68.6893 7.10547C68.7458 7.20964 68.8254 7.28516 68.928 7.33203C69.0333 7.3763 69.1924 7.39844 69.4055 7.39844C69.657 7.39844 69.8483 7.34245 69.9792 7.23047C70.1101 7.11589 70.1896 6.92839 70.2179 6.66797H71.0534C71.0149 7.11589 70.8596 7.44401 70.5875 7.65234C70.3154 7.86068 69.9137 7.96484 69.3824 7.96484Z" fill="white"/>
<path d="M75.1578 14.1328H74.2376V9.22266H72.582V8.42188H76.8134V9.22266H75.1578V14.1328Z" fill="white"/>
<path d="M80.8639 14.1328H77.6797V8.42188H80.8639V9.21094H78.5999V10.7656H80.7215V11.5469H78.5999V13.3398H80.8639V14.1328Z" fill="white"/>
<path d="M84.1328 8.42188H85.8038C86.579 8.42188 87.1386 8.53646 87.4825 8.76562C87.8291 8.99479 88.0023 9.35677 88.0023 9.85156C88.0023 10.1849 87.9176 10.4622 87.7482 10.6836C87.5788 10.9049 87.3349 11.0443 87.0167 11.1016V11.1406C87.412 11.2161 87.702 11.3659 87.8868 11.5898C88.0742 11.8112 88.1679 12.112 88.1679 12.4922C88.1679 13.0052 87.9908 13.4076 87.6366 13.6992C87.2849 13.9883 86.7946 14.1328 86.1657 14.1328H84.1328V8.42188ZM85.053 10.7812H85.9386C86.3236 10.7812 86.6047 10.7201 86.7818 10.5977C86.9589 10.4727 87.0475 10.2617 87.0475 9.96484C87.0475 9.69661 86.9512 9.5026 86.7587 9.38281C86.5687 9.26302 86.2659 9.20313 85.85 9.20313H85.053V10.7812ZM85.053 11.5391V13.3477H86.031C86.416 13.3477 86.7061 13.2734 86.9011 13.125C87.0988 12.974 87.1976 12.737 87.1976 12.4141C87.1976 12.1172 87.0975 11.8971 86.8973 11.7539C86.6971 11.6107 86.3929 11.5391 85.9848 11.5391H85.053Z" fill="white"/>
</g>
<defs>
<linearGradient id="paint0_linear_5370_58013" x1="22.0794" y1="7.33301" x2="22.0794" y2="32.6663" gradientUnits="userSpaceOnUse">
<stop stop-color="#FB6361"/>
<stop offset="1" stop-color="#ED3E45"/>
</linearGradient>
<clipPath id="clip0_5370_58013">
<rect width="133" height="40" fill="white"/>
</clipPath>
</defs>
</svg>
