<svg width="133" height="40" viewBox="0 0 133 40" fill="none" xmlns="http://www.w3.org/2000/svg">
<g clip-path="url(#clip0_5370_58012)">
<path d="M0 5.33333C0 2.38781 2.3536 0 5.25692 0H127.743C130.646 0 133 2.38782 133 5.33333V34.6667C133 37.6122 130.646 40 127.743 40H5.25692C2.3536 40 0 37.6122 0 34.6667V5.33333Z" fill="#23282E"/>
<path d="M30.0553 20.8149C30.0418 18.4705 31.0887 16.7036 33.203 15.4008C32.0205 13.6821 30.2315 12.7368 27.8733 12.5546C25.6404 12.3758 23.1975 13.8746 22.303 13.8746C21.3577 13.8746 19.196 12.6164 17.4951 12.6164C13.9849 12.6714 10.2544 15.4558 10.2544 21.1208C10.2544 22.7949 10.5559 24.5239 11.1591 26.3046C11.9655 28.6489 14.8726 34.393 17.9051 34.3002C19.4908 34.2624 20.6123 33.1589 22.6757 33.1589C24.6782 33.1589 25.715 34.3002 27.4836 34.3002C30.5432 34.2555 33.1725 29.0339 33.9382 26.6827C29.8351 24.7199 30.0553 20.9352 30.0553 20.8149ZM26.4943 10.3305C28.2121 8.26113 28.0562 6.37738 28.0054 5.7002C26.4875 5.78957 24.7324 6.74863 23.7328 7.9277C22.6317 9.1927 21.9845 10.7568 22.1234 12.5202C23.7633 12.6474 25.2609 11.7914 26.4943 10.3305Z" fill="white"/>
<path d="M48.5619 28.9455H46.8216L45.8684 25.8925H42.5549L41.6469 28.9455H39.9526L43.2354 18.5516H45.263L48.5619 28.9455ZM45.581 24.6116L44.7189 21.8975C44.6278 21.6202 44.4569 20.9673 44.2048 19.9395H44.1741C44.0737 20.3815 43.912 21.0345 43.6898 21.8975L42.8431 24.6116H45.581Z" fill="white"/>
<path d="M57.0041 25.106C57.0041 26.3807 56.6661 27.3882 55.9903 28.1278C55.3849 28.7863 54.6332 29.1151 53.7358 29.1151C52.7673 29.1151 52.0715 28.7605 51.6477 28.0513H51.6171V31.9994H49.9833V23.9181C49.9833 23.1168 49.9626 22.2943 49.9228 21.4508H51.3596L51.4508 22.6388H51.4814C52.0263 21.7437 52.8531 21.297 53.9627 21.297C54.8301 21.297 55.5542 21.6461 56.1336 22.3451C56.7144 23.0449 57.0041 23.965 57.0041 25.106ZM55.3397 25.167C55.3397 24.4375 55.1788 23.8361 54.8554 23.3628C54.5021 22.8692 54.0278 22.6224 53.4332 22.6224C53.0301 22.6224 52.6638 22.7598 52.3366 23.0308C52.0086 23.3042 51.7941 23.6611 51.6937 24.1032C51.6431 24.3094 51.6178 24.4781 51.6178 24.6109V25.8605C51.6178 26.4057 51.7818 26.8657 52.1098 27.2414C52.4377 27.6171 52.8638 27.8045 53.3879 27.8045C54.0033 27.8045 54.4822 27.5624 54.8247 27.0797C55.168 26.5962 55.3397 25.9589 55.3397 25.167Z" fill="white"/>
<path d="M65.4619 25.106C65.4619 26.3807 65.1239 27.3882 64.4473 28.1278C63.8427 28.7863 63.091 29.1151 62.1936 29.1151C61.225 29.1151 60.5293 28.7605 60.1063 28.0513H60.0756V31.9994H58.4419V23.9181C58.4419 23.1168 58.4212 22.2943 58.3814 21.4508H59.8181L59.9093 22.6388H59.94C60.484 21.7437 61.3109 21.297 62.4212 21.297C63.2879 21.297 64.012 21.6461 64.5929 22.3451C65.1714 23.0449 65.4619 23.965 65.4619 25.106ZM63.7975 25.167C63.7975 24.4375 63.6358 23.8361 63.3124 23.3628C62.9592 22.8692 62.4864 22.6224 61.891 22.6224C61.4871 22.6224 61.1216 22.7598 60.7936 23.0308C60.4657 23.3042 60.2519 23.6611 60.1515 24.1032C60.1017 24.3094 60.0756 24.4781 60.0756 24.6109V25.8605C60.0756 26.4057 60.2396 26.8657 60.566 27.2414C60.894 27.6163 61.3201 27.8045 61.8457 27.8045C62.4611 27.8045 62.94 27.5624 63.2825 27.0797C63.6258 26.5962 63.7975 25.9589 63.7975 25.167Z" fill="white"/>
<path d="M74.918 26.0309C74.918 26.915 74.6168 27.6343 74.0122 28.1896C73.3479 28.7965 72.423 29.0995 71.2344 29.0995C70.1371 29.0995 69.2574 28.884 68.5915 28.4521L68.9701 27.0642C69.6873 27.5062 70.4743 27.728 71.3318 27.728C71.9471 27.728 72.426 27.5859 72.7701 27.3032C73.1126 27.0204 73.2835 26.6408 73.2835 26.1675C73.2835 25.7458 73.1425 25.3904 72.8597 25.1022C72.5785 24.814 72.1088 24.5461 71.4528 24.2985C69.6674 23.6198 68.7754 22.6256 68.7754 21.3181C68.7754 20.4637 69.0881 19.7631 69.7141 19.2179C70.3379 18.672 71.1701 18.3994 72.2107 18.3994C73.1387 18.3994 73.9095 18.5642 74.5249 18.893L74.1164 20.2505C73.5417 19.9318 72.8919 19.7725 72.1647 19.7725C71.59 19.7725 71.141 19.917 70.8191 20.2044C70.5471 20.4613 70.4107 20.7745 70.4107 21.1455C70.4107 21.5563 70.5662 21.8961 70.8789 22.1632C71.1509 22.41 71.6452 22.6771 72.3624 22.9653C73.2398 23.3254 73.8843 23.7463 74.2988 24.229C74.7119 24.7101 74.918 25.3123 74.918 26.0309Z" fill="white"/>
<path d="M80.3193 22.7006H78.5185V26.3394C78.5185 27.265 78.8358 27.7273 79.4718 27.7273C79.7637 27.7273 80.0059 27.7016 80.1974 27.65L80.2426 28.9145C79.9208 29.0371 79.4971 29.0988 78.9721 29.0988C78.3269 29.0988 77.8227 28.8981 77.4587 28.4974C77.0963 28.096 76.9139 27.4227 76.9139 26.4769V22.6991H75.8411V21.4494H76.9139V20.0771L78.5185 19.5835V21.4494H80.3193V22.7006Z" fill="white"/>
<path d="M88.4443 25.1365C88.4443 26.2885 88.1209 27.2344 87.4757 27.974C86.7991 28.7355 85.901 29.1151 84.7815 29.1151C83.7025 29.1151 82.8435 28.7503 82.2029 28.0209C81.5623 27.2914 81.242 26.3705 81.242 25.2607C81.242 24.0993 81.5715 23.148 82.2328 22.4084C82.8926 21.668 83.783 21.2977 84.9025 21.2977C85.9815 21.2977 86.8497 21.6625 87.5048 22.3928C88.1317 23.1011 88.4443 24.0157 88.4443 25.1365ZM86.7493 25.1904C86.7493 24.4992 86.6045 23.9064 86.311 23.412C85.9684 22.8137 85.4788 22.5154 84.8443 22.5154C84.1876 22.5154 83.6887 22.8145 83.3462 23.412C83.0527 23.9072 82.9079 24.5093 82.9079 25.2216C82.9079 25.9129 83.0527 26.5057 83.3462 26.9993C83.6995 27.5975 84.193 27.8959 84.8297 27.8959C85.4535 27.8959 85.9432 27.5913 86.2964 26.9836C86.5976 26.4799 86.7493 25.8808 86.7493 25.1904Z" fill="white"/>
<path d="M93.7546 22.9153C93.5929 22.8848 93.4205 22.8692 93.2396 22.8692C92.6649 22.8692 92.2205 23.0902 91.9078 23.533C91.6358 23.9236 91.4994 24.4172 91.4994 25.0131V28.9456H89.8664L89.8817 23.8111C89.8817 22.9473 89.861 22.1608 89.8204 21.4516H91.2434L91.3032 22.8856H91.3484C91.5208 22.3927 91.7929 21.996 92.1653 21.6984C92.5293 21.4305 92.9224 21.297 93.3461 21.297C93.4971 21.297 93.6335 21.3079 93.7546 21.3274V22.9153Z" fill="white"/>
<path d="M101.061 24.8437C101.061 25.142 101.042 25.3935 101.001 25.5989H96.0998C96.1189 26.3393 96.3557 26.9056 96.8109 27.2961C97.2239 27.6452 97.758 27.8202 98.414 27.8202C99.1396 27.8202 99.8017 27.7022 100.397 27.4656L100.653 28.6215C99.9573 28.9308 99.1358 29.0847 98.1879 29.0847C97.0477 29.0847 96.1527 28.7426 95.5013 28.0592C94.8515 27.3758 94.5258 26.4581 94.5258 25.3068C94.5258 24.1767 94.8285 23.2355 95.4346 22.485C96.0691 21.6836 96.9266 21.283 98.0055 21.283C99.0653 21.283 99.8676 21.6836 100.412 22.485C100.844 23.1215 101.061 23.9088 101.061 24.8437ZM99.5029 24.4118C99.5136 23.9181 99.4071 23.4917 99.1856 23.1316C98.9029 22.6685 98.4684 22.4373 97.8837 22.4373C97.3496 22.4373 96.9151 22.663 96.5833 23.116C96.3113 23.4761 96.1496 23.908 96.0998 24.411H99.5029V24.4118Z" fill="white"/>
<path d="M41.6363 11.987H42.4782C43.2914 11.987 43.7678 12.3579 43.7678 12.9829V12.9912C43.7678 13.5704 43.2668 13.9495 42.5029 13.9495C41.7225 13.9495 41.2256 13.637 41.1599 13.0829L41.1558 13.0495H40.2563L40.2605 13.0995C40.3221 14.0912 41.1927 14.7662 42.5029 14.7662C43.7719 14.7662 44.7083 14.0245 44.7083 13.0329V13.0245C44.7083 12.2162 44.2196 11.6454 43.4269 11.5454V11.512C44.084 11.3579 44.5276 10.7995 44.5276 10.1329V10.1245C44.5276 9.19538 43.7144 8.55371 42.5234 8.55371C41.2831 8.55371 40.474 9.17454 40.4124 10.1912L40.4083 10.2495H41.2913L41.2954 10.1912C41.3652 9.67454 41.7965 9.37038 42.4946 9.37038C43.2051 9.37038 43.6158 9.69121 43.6158 10.2245V10.2329C43.6158 10.8079 43.16 11.2037 42.4536 11.2037H41.6363V11.987Z" fill="white"/>
<path d="M47.6829 14.7454C48.2579 14.7454 48.7548 14.4454 49.0053 13.9745H49.0259V14.6662H49.913V11.6454C49.913 10.7662 49.2435 10.1995 48.188 10.1995C47.1243 10.1995 46.4796 10.7787 46.4179 11.5329L46.4138 11.5787H47.2517L47.2599 11.5412C47.3338 11.1912 47.65 10.9454 48.1634 10.9454C48.7137 10.9454 49.0259 11.237 49.0259 11.7204V12.0495L47.8472 12.1204C46.8245 12.1829 46.2413 12.6495 46.2413 13.412V13.4204C46.2413 14.2079 46.8204 14.7454 47.6829 14.7454ZM47.1367 13.3995V13.3912C47.1367 13.0204 47.4324 12.7829 47.9663 12.7495L49.0259 12.6829V13.0245C49.0259 13.5954 48.5495 14.0245 47.9252 14.0245C47.4488 14.0245 47.1367 13.7829 47.1367 13.3995Z" fill="white"/>
<path d="M54.6371 10.9995V10.2829H51.7746V14.6662H52.6617V10.9995H54.6371Z" fill="white"/>
<path d="M56.3057 16.1245H57.1928V13.9287H57.2134C57.468 14.437 57.9649 14.7537 58.5769 14.7537C59.6611 14.7537 60.3716 13.8745 60.3716 12.4787V12.4745C60.3716 11.0745 59.6652 10.1995 58.5645 10.1995C57.9485 10.1995 57.4721 10.5162 57.2134 11.037H57.1928V10.2829H56.3057V16.1245ZM58.3346 13.9787C57.6651 13.9787 57.1887 13.387 57.1887 12.4787V12.4745C57.1887 11.562 57.661 10.9704 58.3346 10.9704C59.0327 10.9704 59.4681 11.5412 59.4681 12.4745V12.4787C59.4681 13.4037 59.0327 13.9787 58.3346 13.9787Z" fill="white"/>
<path d="M62.455 16.1287C63.301 16.1287 63.7528 15.7787 64.0731 14.8704L65.6831 10.2829H64.7467L63.6583 13.8495H63.6296L62.5412 10.2829H61.5802L63.1532 14.6704L63.0793 14.8787C62.9314 15.3037 62.7014 15.4162 62.2825 15.4162C62.1634 15.4162 62.0607 15.3995 61.9909 15.3829V16.087C62.0977 16.1079 62.2825 16.1287 62.455 16.1287Z" fill="white"/>
<path d="M68.7316 14.7537C69.7912 14.7537 70.4935 14.2079 70.4935 13.3912V13.3829C70.4935 12.8704 70.1813 12.5204 69.6105 12.4037V12.3704C70.0746 12.262 70.3744 11.8912 70.3744 11.4204V11.412C70.3744 10.662 69.7665 10.1995 68.7727 10.1995C67.7993 10.1995 67.1627 10.6662 67.0601 11.4454L67.0559 11.4787H67.902L67.9061 11.4495C67.9718 11.1162 68.2962 10.912 68.7603 10.912C69.2285 10.912 69.5078 11.1329 69.5078 11.5079V11.5162C69.5078 11.9079 69.2409 12.1079 68.7193 12.1079H68.0991V12.762H68.7234C69.323 12.762 69.6105 12.962 69.6105 13.3829V13.3912C69.6105 13.7912 69.2737 14.037 68.7275 14.037C68.2388 14.037 67.9184 13.8454 67.8198 13.4912L67.8075 13.4495H66.9368L66.941 13.487C67.0272 14.262 67.7213 14.7537 68.7316 14.7537Z" fill="white"/>
<path d="M72.199 14.6662H73.0738L75.0575 11.587H75.0944V14.6662H75.9774V10.2829H75.1026L73.119 13.3495H73.0779V10.2829H72.199V14.6662Z" fill="white"/>
<path d="M81.141 10.2829H77.5474V10.9995H78.8986V14.6662H79.7898V10.9995H81.141V10.2829Z" fill="white"/>
<path d="M84.477 14.7537C85.5243 14.7537 86.1938 14.1204 86.3293 13.4245L86.3416 13.3787H85.4956L85.4832 13.412C85.3724 13.7412 85.0233 14.0162 84.4976 14.0162C83.7912 14.0162 83.3435 13.5329 83.3271 12.7037H86.3868V12.3995C86.3868 11.0829 85.6434 10.1995 84.4319 10.1995C83.2203 10.1995 82.44 11.1162 82.44 12.487V12.4912C82.44 13.8745 83.208 14.7537 84.477 14.7537ZM84.436 10.937C85.0151 10.937 85.4381 11.3079 85.5079 12.0662H83.3394C83.4216 11.3329 83.861 10.937 84.436 10.937Z" fill="white"/>
<path d="M90.7096 14.6662H92.6974C93.6338 14.6662 94.217 14.1745 94.217 13.4079V13.3995C94.217 12.862 93.8473 12.4704 93.2888 12.3954V12.362C93.7036 12.2829 94.0239 11.8704 94.0239 11.4162V11.4079C94.0239 10.712 93.5147 10.2829 92.6727 10.2829H90.7096V14.6662ZM91.5885 12.0912V10.9495H92.4879C92.915 10.9495 93.145 11.1454 93.145 11.5079V11.5162C93.145 11.9037 92.8986 12.0912 92.3976 12.0912H91.5885ZM91.5885 13.9995V12.7454H92.4304C93.0136 12.7454 93.3052 12.9412 93.3052 13.362V13.3704C93.3052 13.787 93.0341 13.9995 92.5331 13.9995H91.5885Z" fill="white"/>
</g>
<defs>
<clipPath id="clip0_5370_58012">
<rect width="133" height="40" fill="white"/>
</clipPath>
</defs>
</svg>
