<svg width="976" height="1002" viewBox="0 0 976 1002" fill="none" xmlns="http://www.w3.org/2000/svg">
<path opacity="0.8" d="M487.927 0C391.416 0.0146338 297.072 29.4101 216.83 84.4697C136.588 139.529 74.0509 217.78 37.1265 309.326C0.201808 400.873 -9.45195 501.605 9.3858 598.784C28.2234 695.963 74.7068 785.226 142.958 855.287C211.209 925.345 298.161 973.054 392.823 992.379C487.484 1011.7 585.6 1001.78 674.767 963.856C763.934 925.934 840.144 861.718 893.764 779.331C947.382 696.944 976 600.085 976 501C975.849 368.161 924.376 240.81 832.876 146.886C741.374 52.9624 617.32 0.137076 487.927 0ZM544.649 696.56C495.924 759.981 425.027 801.39 347.026 811.988C347.026 811.988 403.819 789.789 457.73 698.557C509.335 602 513.731 529.044 562.306 466.37C644.397 360.415 750.2 385.498 750.2 385.498C738.018 345.839 702.126 321.422 651.172 323.715C634.596 268.591 562.884 248.169 511.785 275.472C473.802 295.671 433.01 324.972 387.46 324.011C382.382 324.12 377.304 323.898 372.253 323.345C343.845 318.85 317.634 304.979 297.587 283.832C294.414 329.338 322.955 371.958 356.684 386.163C414.342 410.359 455.063 380.984 455.063 380.984C418.646 479.571 353.131 564.01 267.676 622.495C171.46 573.586 108.036 484.498 94.7031 361.746C126.749 266.46 190.699 185.945 275.163 134.541C359.627 83.1362 459.123 64.1795 555.931 81.047C652.735 97.9149 740.566 149.511 803.782 226.648C866.997 303.784 901.49 401.451 901.117 502.257C901.117 506.993 901.117 511.655 901.117 516.388C861.393 574.923 807.855 622.152 745.51 653.661C683.169 685.171 614.059 699.932 544.649 696.56Z" fill="#EBECEE"/>
</svg>
