<svg width="705" height="705" viewBox="0 0 705 705" fill="none" xmlns="http://www.w3.org/2000/svg">
<path d="M611.123 373.302L644.063 428.462L276.334 648.063L243.394 592.904C237.355 582.791 240.688 569.576 250.801 563.537L581.756 365.896C591.869 359.857 605.084 363.19 611.123 373.302Z" fill="#2C3034"/>
<path d="M247.486 390.912L210.713 412.872L287.573 541.577L324.346 519.617L247.486 390.912Z" fill="#2C3034"/>
<path d="M321.032 346.992L284.259 368.952L361.119 497.657L397.892 475.697L321.032 346.992Z" fill="#2C3034"/>
<path d="M394.577 303.071L357.804 325.031L434.665 453.737L471.438 431.776L394.577 303.071Z" fill="#2C3034"/>
<path d="M468.123 259.151L431.35 281.111L508.211 409.816L544.984 387.856L468.123 259.151Z" fill="#2C3034"/>
<path d="M670.685 431.271L266.183 672.833C258.645 677.335 248.66 674.817 244.158 667.278C239.656 659.74 242.175 649.755 249.713 645.253L654.215 403.692C661.753 399.19 671.738 401.708 676.239 409.247C680.741 416.785 678.223 426.77 670.685 431.271Z" fill="#2C3034"/>
<path d="M454.054 136.599L249.047 169.229C244.492 169.954 238.24 173.687 235.441 177.354L109.492 342.366C104.594 348.783 103.947 359.396 108.12 366.383L144.574 427.426C150.613 437.538 163.828 440.871 173.94 434.832L504.896 237.191C515.008 231.152 518.341 217.937 512.302 207.824L475.848 146.781C471.676 139.795 462.026 135.331 454.054 136.599ZM311.968 290.045C296.707 299.159 277.032 294.197 267.918 278.936C258.805 263.675 263.767 244 279.028 234.886C294.288 225.773 313.964 230.735 323.077 245.996C332.191 261.256 327.229 280.932 311.968 290.045Z" fill="#2C3034"/>
<path d="M613.123 371.302L646.063 426.462L278.335 646.063L245.394 590.904C239.355 580.791 242.688 567.576 252.801 561.537L583.757 363.896C593.869 357.857 607.084 361.19 613.123 371.302Z" fill="#212427"/>
<path d="M249.486 388.912L212.713 410.872L289.574 539.577L326.346 517.617L249.486 388.912Z" fill="#212427"/>
<path d="M323.032 344.992L286.259 366.952L363.119 495.657L399.892 473.697L323.032 344.992Z" fill="#212427"/>
<path d="M396.577 301.071L359.805 323.031L436.665 451.737L473.438 429.776L396.577 301.071Z" fill="#212427"/>
<path d="M470.123 257.151L433.35 279.111L510.211 407.816L546.984 385.856L470.123 257.151Z" fill="#212427"/>
<path d="M672.685 429.271L268.183 670.833C260.645 675.335 250.66 672.817 246.158 665.278C241.656 657.74 244.175 647.755 251.713 643.253L656.215 401.692C663.753 397.19 673.738 399.708 678.24 407.247C682.741 414.785 680.223 424.77 672.685 429.271Z" fill="#212427"/>
<path d="M456.054 134.599L251.047 167.229C246.492 167.954 240.24 171.687 237.442 175.354L111.492 340.366C106.594 346.783 105.947 357.396 110.12 364.383L146.574 425.426C152.613 435.538 165.828 438.871 175.94 432.832L506.896 235.191C517.009 229.152 520.341 215.937 514.302 205.824L477.849 144.781C473.676 137.795 464.026 133.331 456.054 134.599ZM313.968 288.045C298.707 297.159 279.032 292.197 269.918 276.936C260.805 261.675 265.767 242 281.028 232.886C296.288 223.773 315.964 228.735 325.078 243.996C334.191 259.256 329.229 278.932 313.968 288.045Z" fill="#212427"/>
</svg>
