<svg width="515" height="515" viewBox="0 0 515 515" fill="none" xmlns="http://www.w3.org/2000/svg">
<path d="M468.81 407.998V472.245L40.5005 472.245L40.5005 407.998C40.5005 396.22 50.1375 386.583 61.916 386.583H447.395C459.173 386.583 468.81 396.22 468.81 407.998Z" fill="#2C3034"/>
<path d="M147.578 236.674H104.747L104.747 386.583L147.578 386.583V236.674Z" fill="#2C3034"/>
<path d="M233.24 236.674H190.409L190.409 386.583L233.24 386.583L233.24 236.674Z" fill="#2C3034"/>
<path d="M318.902 236.674H276.071L276.071 386.583L318.902 386.583V236.674Z" fill="#2C3034"/>
<path d="M404.564 236.674H361.733V386.583H404.564V236.674Z" fill="#2C3034"/>
<path d="M490.226 488.306H19.0851C10.3047 488.306 3.02343 481.025 3.02344 472.245C3.02344 463.464 10.3047 456.183 19.085 456.183L490.226 456.183C499.006 456.183 506.287 463.464 506.287 472.245C506.287 481.025 499.006 488.306 490.226 488.306Z" fill="#2C3034"/>
<path d="M455.319 124.243L262.579 47.1472C258.296 45.434 251.015 45.434 246.732 47.1472L53.9923 124.243C46.4969 127.241 40.5005 136.021 40.5005 144.159V215.259C40.5005 227.037 50.1375 236.674 61.916 236.674L447.395 236.674C459.173 236.674 468.81 227.037 468.81 215.259V144.159C468.81 136.021 462.814 127.241 455.319 124.243ZM254.655 183.136C236.881 183.136 222.532 168.787 222.532 151.012C222.532 133.237 236.881 118.889 254.655 118.889C272.43 118.889 286.779 133.237 286.779 151.012C286.779 168.787 272.43 183.136 254.655 183.136Z" fill="#2C3034"/>
<path d="M471.553 407.306V471.553L43.2433 471.553L43.2433 407.306C43.2433 395.528 52.8803 385.891 64.6588 385.891H450.138C461.916 385.891 471.553 395.528 471.553 407.306Z" fill="#212427"/>
<path d="M150.321 235.982H107.49L107.49 385.891L150.321 385.891V235.982Z" fill="#212427"/>
<path d="M235.983 235.982H193.152L193.152 385.891L235.983 385.891L235.983 235.982Z" fill="#212427"/>
<path d="M321.645 235.982H278.814L278.814 385.891L321.645 385.891V235.982Z" fill="#212427"/>
<path d="M407.307 235.982H364.476V385.891H407.307V235.982Z" fill="#212427"/>
<path d="M492.969 487.614H21.8279C13.0475 487.614 5.76623 480.333 5.76624 471.553C5.76624 462.772 13.0475 455.491 21.8278 455.491L492.969 455.491C501.749 455.491 509.03 462.772 509.03 471.553C509.03 480.333 501.749 487.614 492.969 487.614Z" fill="#212427"/>
<path d="M458.061 123.551L265.322 46.4553C261.039 44.7421 253.758 44.7421 249.474 46.4553L56.7351 123.551C49.2397 126.549 43.2433 135.33 43.2433 143.467V214.567C43.2433 226.345 52.8803 235.982 64.6588 235.982L450.138 235.982C461.916 235.982 471.553 226.345 471.553 214.567V143.467C471.553 135.33 465.557 126.549 458.061 123.551ZM257.398 182.444C239.623 182.444 225.275 168.095 225.275 150.32C225.275 132.546 239.623 118.197 257.398 118.197C275.173 118.197 289.521 132.546 289.521 150.32C289.521 168.095 275.173 182.444 257.398 182.444Z" fill="#212427"/>
</svg>
