<svg width="81" height="80" viewBox="0 0 81 80" fill="none" xmlns="http://www.w3.org/2000/svg">
<path d="M73.6414 16.1664V55.7998C73.6414 59.0331 71.0081 61.9998 67.7747 62.3998L66.7414 62.5331C61.2747 63.2664 53.5747 65.5331 47.3747 68.1331C45.2081 69.0331 42.8081 67.3998 42.8081 65.0331V18.6664C42.8081 17.4331 43.5081 16.2998 44.6081 15.6998C50.7081 12.3998 59.9414 9.46644 66.2081 8.93311H66.4081C70.4081 8.93311 73.6414 12.1664 73.6414 16.1664Z" fill="white"/>
<path d="M36.0081 15.6998C29.9081 12.3998 20.6747 9.46644 14.4081 8.93311H14.1747C10.1747 8.93311 6.94141 12.1664 6.94141 16.1664V55.7998C6.94141 59.0331 9.57474 61.9998 12.8081 62.3998L13.8414 62.5331C19.3081 63.2664 27.0081 65.5331 33.2081 68.1331C35.3747 69.0331 37.7747 67.3998 37.7747 65.0331V18.6664C37.7747 17.3998 37.1081 16.2998 36.0081 15.6998ZM16.9747 25.7998H24.4747C25.8414 25.7998 26.9747 26.9331 26.9747 28.2998C26.9747 29.6998 25.8414 30.7998 24.4747 30.7998H16.9747C15.6081 30.7998 14.4747 29.6998 14.4747 28.2998C14.4747 26.9331 15.6081 25.7998 16.9747 25.7998ZM26.9747 40.7998H16.9747C15.6081 40.7998 14.4747 39.6998 14.4747 38.2998C14.4747 36.9331 15.6081 35.7998 16.9747 35.7998H26.9747C28.3414 35.7998 29.4747 36.9331 29.4747 38.2998C29.4747 39.6998 28.3414 40.7998 26.9747 40.7998Z" fill="white"/>
</svg>
