<svg width="81" height="80" viewBox="0 0 81 80" fill="none" xmlns="http://www.w3.org/2000/svg">
<path d="M20.308 17.0667C18.9414 17.0667 17.808 15.9334 17.808 14.5667V8.7334C17.808 7.36673 18.9414 6.2334 20.308 6.2334C21.6747 6.2334 22.808 7.36673 22.808 8.7334V14.5667C22.808 15.9667 21.6747 17.0667 20.308 17.0667Z" fill="white"/>
<path d="M33.6414 17.0667C32.2747 17.0667 31.1414 15.9334 31.1414 14.5667V8.7334C31.1414 7.36673 32.2747 6.2334 33.6414 6.2334C35.008 6.2334 36.1414 7.36673 36.1414 8.7334V14.5667C36.1414 15.9667 35.008 17.0667 33.6414 17.0667Z" fill="white"/>
<path d="M46.9747 17.0667C45.608 17.0667 44.4747 15.9334 44.4747 14.5667V8.7334C44.4747 7.36673 45.608 6.2334 46.9747 6.2334C48.3414 6.2334 49.4747 7.36673 49.4747 8.7334V14.5667C49.4747 15.9667 48.3414 17.0667 46.9747 17.0667Z" fill="white"/>
<path d="M74.4747 44.1667C74.4747 35.4334 67.708 28.3667 59.1747 27.6334C56.708 23.6001 52.308 20.8667 47.2414 20.8667H22.6747C14.9414 20.8667 8.64136 27.1667 8.64136 34.9001V36.6667H61.2747V34.9001C61.2747 34.2667 61.1747 33.6334 61.0747 33.0334C65.908 34.4667 69.4747 38.8667 69.4747 44.1667C69.4747 49.4001 66.008 53.7667 61.2747 55.2334V40.0001H8.64136V59.3001C8.64136 67.0334 14.9414 73.3334 22.6747 73.3334H47.2414C54.5747 73.3334 60.5414 67.6667 61.1414 60.4667C68.7414 58.9334 74.4747 52.2001 74.4747 44.1667Z" fill="white"/>
</svg>
