<svg width="80" height="80" viewBox="0 0 80 80" fill="none" xmlns="http://www.w3.org/2000/svg">
<path d="M18.2367 11.4001C18.0954 13.7656 18.4424 16.1348 19.2561 18.3604C20.0699 20.586 21.3329 22.6203 22.9667 24.3368C19.7912 25.2473 16.9482 27.0597 14.7827 29.5543C12.6171 32.0488 11.222 35.1182 10.7667 38.3901C9.66874 46.2419 11.2795 54.2334 15.3334 61.0468L16.5 63.0135C16.5442 63.0858 16.5921 63.1559 16.6434 63.2235L21.3634 69.5768C22.3631 70.9233 23.6443 72.0358 25.1178 72.8367C26.5913 73.6376 28.2216 74.1077 29.8953 74.2144C31.569 74.321 33.2458 74.0615 34.809 73.454C36.3722 72.8465 37.7842 71.9056 38.9467 70.6968C39.0826 70.5554 39.2457 70.443 39.4261 70.3662C39.6065 70.2894 39.8006 70.2498 39.9967 70.2498C40.1928 70.2498 40.3869 70.2894 40.5673 70.3662C40.7477 70.443 40.9108 70.5554 41.0467 70.6968C42.2092 71.9056 43.6212 72.8465 45.1844 73.454C46.7476 74.0615 48.4244 74.321 50.0981 74.2144C51.7718 74.1077 53.4021 73.6376 54.8756 72.8367C56.3491 72.0358 57.6303 70.9233 58.63 69.5768L63.35 63.2201C63.4002 63.1525 63.447 63.0825 63.49 63.0101L64.66 61.0435C68.7158 54.2332 70.3301 46.2442 69.2367 38.3935C68.914 36.0802 68.1198 33.8578 66.9035 31.8638C65.6871 29.8698 64.0744 28.1467 62.1652 26.8012C60.256 25.4557 58.0909 24.5164 55.804 24.0415C53.5171 23.5666 51.1571 23.5661 48.87 24.0401L42.5334 25.3535H42.5234C42.6234 22.7535 43.03 19.9535 43.8267 17.5601C44.7934 14.6668 46.1334 12.9268 47.6267 12.3068C48.2389 12.0513 48.7245 11.5631 48.9768 10.9495C49.229 10.336 49.2272 9.64733 48.9717 9.03513C48.7162 8.42292 48.228 7.93728 47.6144 7.68504C47.0009 7.43281 46.3122 7.43463 45.7 7.69013C42.1934 9.15346 40.2 12.6235 39.0834 15.9768L38.93 16.4501C38.1091 14.864 37.0489 13.4136 35.7867 12.1501C34.058 10.4194 31.9813 9.07574 29.6942 8.20802C27.4071 7.3403 24.9617 6.96834 22.52 7.11679C21.4057 7.18093 20.3537 7.65181 19.5636 8.44012C18.7734 9.22842 18.3001 10.2793 18.2334 11.3935L18.2367 11.4001ZM27.99 37.4501C26.8334 37.6801 25.7734 38.4935 25.11 40.0435C24.4334 41.6235 24.1934 43.9668 24.9234 46.8901C25.0734 47.5295 24.9659 48.2022 24.624 48.7629C24.2821 49.3236 23.7333 49.7273 23.0962 49.8867C22.4591 50.046 21.7849 49.9483 21.2193 49.6147C20.6536 49.281 20.242 48.7382 20.0734 48.1035C19.14 44.3635 19.3167 40.8701 20.5134 38.0735C21.7234 35.2501 23.9967 33.1468 27.01 32.5468C27.3366 32.4697 27.6753 32.4591 28.0061 32.5157C28.3368 32.5723 28.6528 32.6949 28.9351 32.8762C29.2175 33.0575 29.4604 33.2938 29.6495 33.571C29.8387 33.8482 29.97 34.1606 30.0358 34.4896C30.1016 34.8187 30.1005 35.1576 30.0326 35.4862C29.9646 35.8148 29.8312 36.1263 29.6403 36.4023C29.4494 36.6782 29.2049 36.9129 28.9214 37.0924C28.6379 37.2718 28.3211 37.3957 27.99 37.4501Z" fill="white"/>
</svg>
