<svg width="81" height="80" viewBox="0 0 81 80" fill="none" xmlns="http://www.w3.org/2000/svg">
<path d="M74.7749 31.0998L68.1082 27.7665C66.8749 27.1665 65.3415 27.6332 64.7415 28.8665C64.1082 30.1332 64.6082 31.6332 65.8415 32.2332L71.1415 34.8665V50.8332L58.6415 50.8665V16.6665C58.6415 9.99984 54.1749 6.6665 48.6415 6.6665H21.9749C16.4415 6.6665 11.9749 9.99984 11.9749 16.6665V70.8332H6.97485C5.60819 70.8332 4.47485 71.9665 4.47485 73.3332C4.47485 74.6998 5.60819 75.8332 6.97485 75.8332H63.6415C65.0082 75.8332 66.1415 74.6998 66.1415 73.3332C66.1415 71.9665 65.0082 70.8332 63.6415 70.8332H58.6415V55.8665L73.6415 55.8332C75.0415 55.8332 76.1415 54.6998 76.1415 53.3332V33.3332C76.1415 32.3998 75.6082 31.5332 74.7749 31.0998ZM20.3082 22.9665C20.3082 18.3332 23.1415 16.6665 26.6082 16.6665H44.0415C47.4749 16.6665 50.3082 18.3332 50.3082 22.9665V27.0665C50.3082 31.6665 47.4749 33.3332 44.0082 33.3332H26.6082C23.1415 33.3332 20.3082 31.6665 20.3082 27.0332V22.9665ZM21.9749 40.8332H31.9749C33.3415 40.8332 34.4749 41.9665 34.4749 43.3332C34.4749 44.6998 33.3415 45.8332 31.9749 45.8332H21.9749C20.6082 45.8332 19.4749 44.6998 19.4749 43.3332C19.4749 41.9665 20.6082 40.8332 21.9749 40.8332Z" fill="white"/>
</svg>
