<svg width="133" height="40" viewBox="0 0 133 40" fill="none" xmlns="http://www.w3.org/2000/svg">
<g clip-path="url(#clip0_5370_58011)">
<path d="M0 5.33333C0 2.38781 2.3536 0 5.25692 0H127.743C130.646 0 133 2.38782 133 5.33333V34.6667C133 37.6122 130.646 40 127.743 40H5.25692C2.3536 40 0 37.6122 0 34.6667V5.33333Z" fill="#23282E"/>
<path d="M67.3898 21.7303C65.023 21.7303 63.0675 23.6056 63.0675 26.1768C63.0675 28.7269 65.0025 30.6232 67.39 30.6232C69.7774 30.6232 71.7122 28.7479 71.7122 26.1768C71.7122 23.6056 69.7774 21.7303 67.3898 21.7303ZM67.3898 28.8538C66.0928 28.8538 64.9615 27.7366 64.9615 26.1569C64.9615 24.5553 66.0937 23.46 67.3898 23.46C68.6859 23.46 69.8182 24.5553 69.8182 26.1569C69.8182 27.7366 68.6859 28.8538 67.3898 28.8538ZM57.9836 21.7303C55.596 21.7303 53.661 23.6056 53.661 26.1768C53.661 28.7269 55.596 30.6232 57.9836 30.6232C60.3709 30.6232 62.3059 28.7479 62.3059 26.1768C62.3059 23.6056 60.3709 21.7303 57.9833 21.7303H57.9836ZM57.9836 28.8538C56.6863 28.8538 55.5552 27.7366 55.5552 26.1569C55.5552 24.5553 56.6875 23.46 57.9836 23.46C59.2806 23.46 60.4119 24.5553 60.4119 26.1569C60.4119 27.7366 59.3 28.8538 57.9836 28.8538ZM46.807 23.1003V24.9755H51.1702C51.0462 26.0291 50.6974 26.8088 50.1824 27.336C49.5446 27.989 48.5566 28.7059 46.807 28.7059C44.1103 28.7059 42.0321 26.4723 42.0321 23.7115C42.0321 20.9507 44.1114 18.6748 46.807 18.6748C48.2679 18.6748 49.3183 19.2651 50.1004 20.024L51.3965 18.6958C50.3052 17.6215 48.8444 16.7998 46.807 16.7998C43.1222 16.7998 40.0347 19.8971 40.0347 23.6695C40.0347 27.4422 43.1222 30.5394 46.807 30.5394C48.8034 30.5394 50.2858 29.8654 51.4794 28.6003C52.6937 27.357 53.0642 25.6075 53.0642 24.1958C53.0642 23.7535 53.0234 23.3529 52.961 23.0156L46.807 23.1003ZM92.542 24.5542C92.1918 23.5636 91.0809 21.7303 88.8572 21.7303C86.6337 21.7303 84.8021 23.5218 84.8021 26.1768C84.8021 28.663 86.6337 30.6232 89.0632 30.6232C91.039 30.6232 92.1713 29.3799 92.6443 28.663L91.1835 27.6517C90.689 28.3896 90.0307 28.8737 89.0632 28.8737C88.0957 28.8737 87.4169 28.4314 86.9839 27.5248L92.7263 25.0595L92.542 24.5542ZM86.6961 26.051C86.6553 24.3435 87.9934 23.4588 88.9392 23.4588C89.701 23.4588 90.3185 23.8382 90.5445 24.4074L86.6961 26.051ZM82.0238 30.3285H83.9178V17.3049H82.0238V30.3285ZM78.9371 22.7209H78.8756C78.4435 22.1937 77.641 21.7303 76.6111 21.7303C74.4498 21.7303 72.4945 23.6905 72.4945 26.1768C72.4945 28.663 74.4703 30.6024 76.6111 30.6024C77.6399 30.6024 78.4426 30.1389 78.8756 29.5906H78.9371V30.2228C78.9371 31.9304 78.0514 32.8358 76.6316 32.8358C75.4788 32.8358 74.7581 31.9721 74.4703 31.2552L72.8242 31.9721C73.297 33.1524 74.5532 34.6063 76.6316 34.6063C78.8542 34.6063 80.7277 33.2574 80.7277 29.9912V22.004H78.9371V22.7209ZM76.7758 28.8538C75.4788 28.8538 74.3885 27.7366 74.3885 26.1779C74.3885 24.6192 75.4797 23.4808 76.7758 23.4808C78.0525 23.4808 79.0813 24.6192 79.0813 26.1779C79.0804 27.7156 78.0514 28.8538 76.7758 28.8538ZM101.372 17.3051H96.8439V30.3285H98.7379V25.3968H101.372C103.472 25.3968 105.53 23.837 105.53 21.351C105.53 18.8647 103.472 17.3049 101.372 17.3049V17.3051ZM101.433 23.5857H98.7572V19.1172H101.433C102.833 19.1172 103.656 20.3184 103.656 21.3508C103.636 22.3623 102.834 23.5857 101.433 23.5857ZM113.084 21.7093C111.725 21.7093 110.305 22.3206 109.729 23.7115L111.397 24.4284C111.767 23.7115 112.426 23.4798 113.126 23.4798C114.114 23.4798 115.102 24.0908 115.122 25.1652V25.2921C114.772 25.0814 114.052 24.7858 113.146 24.7858C111.335 24.7858 109.503 25.8184 109.503 27.7156C109.503 29.4649 110.985 30.5814 112.631 30.5814C113.908 30.5814 114.607 29.9912 115.039 29.2962H115.101V30.3078H116.932V25.3129C116.912 23.0163 115.245 21.7091 113.084 21.7091V21.7093ZM112.858 28.8328C112.24 28.8328 111.375 28.5163 111.375 27.7375C111.375 26.7259 112.445 26.3466 113.372 26.3466C114.195 26.3466 114.586 26.5363 115.101 26.7889C114.957 27.9902 113.948 28.8328 112.858 28.8328ZM123.54 22.0051L121.379 27.6316H121.317L119.074 22.0049H117.037L120.412 29.8862L118.497 34.2909H120.473L125.639 22.0049H123.54L123.54 22.0051ZM106.58 30.3285H108.474V17.3049H106.58V30.3285Z" fill="white"/>
<path d="M45.757 11.2008V13.1347H44.9695V11.9998H41.3485V13.1347H40.561V11.2008H41.1498C41.3461 10.9221 41.4908 10.5214 41.584 9.99871C41.6773 9.47107 41.7239 8.89862 41.7239 8.28138V6.65365H45.1756V11.2008H45.757ZM44.3513 11.2008V7.45258H42.5408V8.42325C42.5408 8.98076 42.4966 9.49845 42.4083 9.97631C42.3249 10.4542 42.1973 10.8624 42.0256 11.2008H44.3513Z" fill="white"/>
<path d="M49.0986 12.1192C48.5883 12.1192 48.1246 11.9973 47.7076 11.7534C47.2905 11.5045 46.9618 11.166 46.7214 10.7379C46.4859 10.3098 46.3681 9.83942 46.3681 9.32671C46.3681 8.814 46.4859 8.34609 46.7214 7.92298C46.9618 7.49489 47.2905 7.1564 47.7076 6.90751C48.1246 6.65862 48.5883 6.53418 49.0986 6.53418C49.6088 6.53418 50.07 6.65862 50.4822 6.90751C50.8992 7.1564 51.228 7.49489 51.4684 7.92298C51.7088 8.34609 51.829 8.814 51.829 9.32671C51.829 9.83942 51.7088 10.3098 51.4684 10.7379C51.2329 11.166 50.9066 11.5045 50.4895 11.7534C50.0725 11.9973 49.6088 12.1192 49.0986 12.1192ZM49.0986 11.3203C49.4469 11.3203 49.7658 11.2357 50.0553 11.0664C50.3448 10.8972 50.5729 10.6632 50.7398 10.3646C50.9066 10.0609 50.99 9.71498 50.99 9.32671C50.99 8.93845 50.9066 8.59498 50.7398 8.29631C50.5729 7.99267 50.3448 7.75622 50.0553 7.58698C49.7658 7.41774 49.4469 7.33311 49.0986 7.33311C48.7502 7.33311 48.4313 7.41774 48.1418 7.58698C47.8523 7.75622 47.6217 7.99267 47.45 8.29631C47.2832 8.59498 47.1998 8.93845 47.1998 9.32671C47.1998 9.71498 47.2832 10.0609 47.45 10.3646C47.6217 10.6632 47.8523 10.8972 48.1418 11.0664C48.4313 11.2357 48.7502 11.3203 49.0986 11.3203Z" fill="white"/>
<path d="M55.1866 12.1192C54.6764 12.1192 54.2102 11.9973 53.7883 11.7534C53.3663 11.5095 53.0351 11.1735 52.7947 10.7454C52.5543 10.3173 52.4341 9.8444 52.4341 9.32671C52.4341 8.80902 52.5543 8.33614 52.7947 7.90805C53.0351 7.47996 53.3663 7.14396 53.7883 6.90005C54.2102 6.65614 54.6764 6.53418 55.1866 6.53418C55.5841 6.53418 55.9447 6.60885 56.2685 6.75818C56.5972 6.90751 56.8867 7.12405 57.1369 7.40778L56.5482 7.98271C56.3666 7.76369 56.1655 7.60191 55.9447 7.49738C55.7239 7.38787 55.4712 7.33311 55.1866 7.33311C54.8334 7.33311 54.5095 7.41525 54.2151 7.57951C53.9257 7.74378 53.6951 7.97774 53.5233 8.28138C53.3516 8.58005 53.2657 8.92849 53.2657 9.32671C53.2657 9.72494 53.3516 10.0759 53.5233 10.3795C53.6951 10.6782 53.9257 10.9096 54.2151 11.0739C54.5095 11.2382 54.8334 11.3203 55.1866 11.3203C55.7754 11.3203 56.2759 11.0714 56.688 10.5736L57.2841 11.156C57.029 11.4597 56.7223 11.6961 56.3642 11.8654C56.006 12.0346 55.6135 12.1192 55.1866 12.1192Z" fill="white"/>
<path d="M59.2716 7.45258H57.7997V6.65365H61.5678V7.45258H60.0959V11.9998H59.2716V7.45258Z" fill="white"/>
<path d="M62.9325 12.1192C62.751 12.1192 62.5964 12.0869 62.4689 12.0222V11.2083C62.6308 11.2979 62.778 11.3427 62.9104 11.3427C63.0429 11.3427 63.1484 11.3178 63.2269 11.268C63.3054 11.2133 63.3766 11.1137 63.4403 10.9694L63.6243 10.5811L61.8727 6.65365H62.7927L64.0218 9.61791H64.0659L65.3023 6.65365H66.2223L64.2057 11.1486C64.0586 11.4821 63.8795 11.7285 63.6685 11.8878C63.4624 12.0421 63.2171 12.1192 62.9325 12.1192Z" fill="white"/>
<path d="M66.9369 6.65365H70.8596V11.9998H70.0353V7.45258H67.7612V11.9998H66.9369V6.65365Z" fill="white"/>
<path d="M72.0614 6.65365H72.8856V8.87125H75.3291V6.65365H76.146V11.9998H75.3291V9.66271H72.8856V11.9998H72.0614V6.65365Z" fill="white"/>
<path d="M79.7447 12.1192C79.2345 12.1192 78.7708 11.9973 78.3538 11.7534C77.9367 11.5045 77.608 11.166 77.3676 10.7379C77.1321 10.3098 77.0143 9.83942 77.0143 9.32671C77.0143 8.814 77.1321 8.34609 77.3676 7.92298C77.608 7.49489 77.9367 7.1564 78.3538 6.90751C78.7708 6.65862 79.2345 6.53418 79.7447 6.53418C80.255 6.53418 80.7162 6.65862 81.1284 6.90751C81.5454 7.1564 81.8742 7.49489 82.1146 7.92298C82.355 8.34609 82.4752 8.814 82.4752 9.32671C82.4752 9.83942 82.355 10.3098 82.1146 10.7379C81.8791 11.166 81.5528 11.5045 81.1357 11.7534C80.7187 11.9973 80.255 12.1192 79.7447 12.1192ZM79.7447 11.3203C80.0931 11.3203 80.412 11.2357 80.7015 11.0664C80.991 10.8972 81.2191 10.6632 81.386 10.3646C81.5528 10.0609 81.6362 9.71498 81.6362 9.32671C81.6362 8.93845 81.5528 8.59498 81.386 8.29631C81.2191 7.99267 80.991 7.75622 80.7015 7.58698C80.412 7.41774 80.0931 7.33311 79.7447 7.33311C79.3964 7.33311 79.0775 7.41774 78.788 7.58698C78.4985 7.75622 78.2679 7.99267 78.0962 8.29631C77.9294 8.59498 77.8459 8.93845 77.8459 9.32671C77.8459 9.71498 77.9294 10.0609 78.0962 10.3646C78.2679 10.6632 78.4985 10.8972 78.788 11.0664C79.0775 11.2357 79.3964 11.3203 79.7447 11.3203Z" fill="white"/>
<path d="M85.142 6.65365H87.1218C87.4015 6.65365 87.6591 6.71587 87.8946 6.84031C88.135 6.96476 88.3263 7.13649 88.4686 7.35551C88.6109 7.57454 88.682 7.81596 88.682 8.07978C88.682 8.3436 88.6158 8.57258 88.4833 8.76671C88.3558 8.96085 88.1865 9.10769 87.9755 9.20725V9.25205C88.2405 9.34662 88.4539 9.50342 88.6158 9.72245C88.7826 9.94147 88.866 10.1978 88.866 10.4915C88.866 10.7852 88.79 11.0465 88.6379 11.2755C88.4907 11.5045 88.2895 11.6837 88.0344 11.8131C87.7842 11.9376 87.5094 11.9998 87.2101 11.9998H85.142V6.65365ZM87.085 8.89365C87.3205 8.89365 87.5094 8.81898 87.6517 8.66965C87.7989 8.52031 87.8725 8.34858 87.8725 8.15445C87.8725 7.96031 87.8013 7.79107 87.6591 7.64671C87.5217 7.49738 87.3401 7.42271 87.1144 7.42271H85.9663V8.89365H87.085ZM87.2101 11.2232C87.4603 11.2232 87.6591 11.1436 87.8062 10.9843C87.9583 10.825 88.0344 10.6408 88.0344 10.4318C88.0344 10.2177 87.9559 10.0336 87.7989 9.87925C87.6468 9.71996 87.4407 9.64031 87.1807 9.64031H85.9663V11.2232H87.2101Z" fill="white"/>
<path d="M28.0436 24.2882C31.1927 22.5177 33.5803 21.1688 33.786 21.064C34.4441 20.7054 35.1241 19.7568 33.786 19.0201C33.354 18.7884 31.028 17.4812 28.0436 15.7959L23.9067 20.0734L28.0434 24.2882H28.0436Z" fill="#FFD900"/>
<path d="M23.9068 20.0732L10.7339 33.6661C11.0429 33.7081 11.392 33.6241 11.8037 33.3925C12.6678 32.9083 21.8273 27.7868 28.0439 24.2889L23.9068 20.0732Z" fill="#F43249"/>
<path d="M23.907 20.0738L28.0437 15.817C28.0437 15.817 12.7305 7.26083 11.8038 6.75597C11.4551 6.54368 11.0639 6.48092 10.7139 6.54368L23.907 20.0736V20.0738Z" fill="#00EE76"/>
<path d="M23.907 20.0738L10.7136 6.54395C10.1781 6.67062 9.72559 7.15495 9.72559 8.14507V32.0649C9.72559 32.9717 10.0758 33.6247 10.7339 33.6875L23.9068 20.0736L23.907 20.0738Z" fill="#00D3FF"/>
</g>
<defs>
<clipPath id="clip0_5370_58011">
<rect width="133" height="40" fill="white"/>
</clipPath>
</defs>
</svg>
