<svg width="81" height="80" viewBox="0 0 81 80" fill="none" xmlns="http://www.w3.org/2000/svg">
<path d="M66.9747 39.9998V59.9998C66.9747 67.3665 61.008 73.3331 53.6414 73.3331H26.9747C19.608 73.3331 13.6414 67.3665 13.6414 59.9998V39.9998C13.6414 38.1665 15.1414 36.6665 16.9747 36.6665H23.5414C25.3747 36.6665 26.8747 38.1665 26.8747 39.9998V50.4665C26.8747 52.9331 28.2414 55.1998 30.408 56.3665C31.3747 56.8998 32.4414 57.1665 33.5414 57.1665C34.808 57.1665 36.0747 56.7998 37.1747 56.0665L40.3414 53.9998L43.2747 55.9665C45.308 57.3331 47.908 57.4998 50.0747 56.3331C52.2747 55.1665 53.6414 52.9331 53.6414 50.4331V39.9998C53.6414 38.1665 55.1414 36.6665 56.9747 36.6665H63.6414C65.4747 36.6665 66.9747 38.1665 66.9747 39.9998Z" fill="white"/>
<path d="M71.9747 23.3331V26.6665C71.9747 30.3331 70.208 33.3331 65.308 33.3331H15.308C10.208 33.3331 8.64136 30.3331 8.64136 26.6665V23.3331C8.64136 19.6665 10.208 16.6665 15.308 16.6665H65.308C70.208 16.6665 71.9747 19.6665 71.9747 23.3331Z" fill="white"/>
<path d="M39.108 16.6665H20.708C19.5747 15.4331 19.608 13.5331 20.808 12.3331L25.5414 7.5998C26.7747 6.36647 28.808 6.36647 30.0414 7.5998L39.108 16.6665Z" fill="white"/>
<path d="M59.8747 16.6665H41.4747L50.5414 7.5998C51.7747 6.36647 53.808 6.36647 55.0414 7.5998L59.7747 12.3331C60.9747 13.5331 61.008 15.4331 59.8747 16.6665Z" fill="white"/>
<path d="M46.8747 36.6665C48.708 36.6665 50.208 38.1665 50.208 39.9998V50.4331C50.208 53.0998 47.2414 54.6998 45.0414 53.1998L42.0414 51.1998C40.9414 50.4665 39.508 50.4665 38.3747 51.1998L35.2414 53.2665C33.0414 54.7331 30.108 53.1331 30.108 50.4998V39.9998C30.108 38.1665 31.608 36.6665 33.4414 36.6665H46.8747Z" fill="white"/>
</svg>
