<svg width="81" height="80" viewBox="0 0 81 80" fill="none" xmlns="http://www.w3.org/2000/svg">
<path fill-rule="evenodd" clip-rule="evenodd" d="M19.3315 12.9301C21.2065 11.0546 23.7496 10.0007 26.4015 10.0001C29.0349 10.0001 32.8949 9.26676 34.0749 12.3701C34.556 13.6336 35.4097 14.721 36.5229 15.4883C37.6361 16.2555 38.9562 16.6664 40.3082 16.6664C41.6602 16.6664 42.9803 16.2555 44.0934 15.4883C45.2066 14.721 46.0604 13.6336 46.5415 12.3701C47.7215 9.27009 51.5849 10.0034 54.2149 10.0034C56.8652 10.004 59.4069 11.0566 61.2815 12.9301L73.6415 25.2868C74.8913 26.5369 75.5934 28.2323 75.5934 30.0001C75.5934 31.7679 74.8913 33.4632 73.6415 34.7134L68.7149 39.6401C66.9815 41.3734 64.5615 41.9368 62.3815 41.3934L63.2882 59.5001C63.356 60.8536 63.1479 62.2068 62.6766 63.4775C62.2053 64.7482 61.4807 65.9098 60.5467 66.8918C59.6127 67.8738 58.4888 68.6557 57.2433 69.1901C55.9979 69.7244 54.6568 70 53.3015 70.0001H27.3149C25.9596 70 24.6185 69.7244 23.3731 69.1901C22.1276 68.6557 21.0037 67.8738 20.0697 66.8918C19.1357 65.9098 18.4111 64.7482 17.9398 63.4775C17.4685 62.2068 17.2604 60.8536 17.3282 59.5001L18.2349 41.3934C17.1177 41.6744 15.9468 41.6606 14.8366 41.3533C13.7264 41.0459 12.7151 40.4556 11.9015 39.6401L6.97486 34.7134C5.72505 33.4632 5.02295 31.7679 5.02295 30.0001C5.02295 28.2323 5.72505 26.5369 6.97486 25.2868L19.3315 12.9301Z" fill="white"/>
</svg>
