<svg width="80" height="80" viewBox="0 0 80 80" fill="none" xmlns="http://www.w3.org/2000/svg">
<path fill-rule="evenodd" clip-rule="evenodd" d="M41.6668 26.6668C29.7007 26.6668 20.0002 36.3673 20.0002 48.3335C20.0002 60.2997 29.7007 70.0002 41.6668 70.0002C53.633 70.0002 63.3335 60.2997 63.3335 48.3335C63.3335 36.3673 53.633 26.6668 41.6668 26.6668ZM13.3335 48.3335C13.3335 32.6854 26.0188 20.0002 41.6668 20.0002C57.3149 20.0002 70.0002 32.6854 70.0002 48.3335C70.0002 63.9816 57.3149 76.6668 41.6668 76.6668C26.0188 76.6668 13.3335 63.9816 13.3335 48.3335Z" fill="white"/>
<path d="M30.0002 13.3335L35.0002 6.66683H48.4235L53.3335 13.3335L41.6668 23.3335L30.0002 13.3335Z" fill="white"/>
<path fill-rule="evenodd" clip-rule="evenodd" d="M32.3335 4.66683C32.963 3.82748 33.951 3.3335 35.0002 3.3335H48.4235C49.4829 3.3335 50.4792 3.83708 51.1075 4.69009L56.0175 11.3568C57.0526 12.7623 56.8281 14.7283 55.5028 15.8644L43.8361 25.8644C42.5878 26.9343 40.7458 26.9343 39.4975 25.8644L27.8309 15.8644C26.497 14.7211 26.2795 12.7389 27.3335 11.3335L32.3335 4.66683ZM36.6668 10.0002L34.5406 12.8351L41.6668 18.9432L48.8136 12.8174L46.7387 10.0002H36.6668Z" fill="white"/>
</svg>
