<svg width="81" height="80" viewBox="0 0 81 80" fill="none" xmlns="http://www.w3.org/2000/svg">
<path d="M16.9749 30.5001V23.3334C16.9749 19.6667 19.9749 16.6667 23.6415 16.6667H56.9749C60.6415 16.6667 63.6415 19.6667 63.6415 23.3334V30.5334C59.7749 31.9001 56.9749 35.5667 56.9749 39.9001V46.6667H23.6415V39.8667C23.6415 35.5667 20.8415 31.8667 16.9749 30.5001ZM66.9749 33.3334C63.3082 33.3334 60.3082 36.3334 60.3082 40.0001V50.0001H20.3082V40.0001C20.3082 38.232 19.6058 36.5363 18.3556 35.286C17.1053 34.0358 15.4096 33.3334 13.6415 33.3334C11.8734 33.3334 10.1777 34.0358 8.92747 35.286C7.67723 36.5363 6.97485 38.232 6.97485 40.0001V56.6667C6.97485 60.3334 9.97485 63.3334 13.6415 63.3334V70.0001H20.3082V63.3334H60.3082V70.0001H66.9749V63.3334C70.6415 63.3334 73.6415 60.3334 73.6415 56.6667V40.0001C73.6415 36.3334 70.6415 33.3334 66.9749 33.3334Z" fill="white"/>
</svg>
