<svg width="81" height="80" viewBox="0 0 81 80" fill="none" xmlns="http://www.w3.org/2000/svg">
<path d="M33.2082 40.5001L30.3082 21.5334C36.8147 19.4667 43.8017 19.4667 50.3082 21.5334L47.4082 40.5001C47.1749 42.1334 45.7415 43.3334 44.0749 43.3334H36.5082C35.71 43.3344 34.938 43.049 34.3324 42.5291C33.7268 42.0092 33.3279 41.2892 33.2082 40.5001ZM73.6415 53.3334C73.6415 50.7001 72.0749 48.3334 69.6415 47.2334C68.0374 39.5261 63.4939 32.7468 56.9749 28.3334L51.1082 44.4667C50.6415 45.8001 49.3749 46.6667 47.9749 46.6667H32.6415C31.2415 46.6667 29.9749 45.8001 29.5082 44.4667L23.6415 28.3334C17.1309 32.7401 12.5886 39.5056 10.9749 47.2001C8.54152 48.3334 6.97485 50.6667 6.97485 53.3334L28.4749 59.4667C29.6749 59.8001 30.9082 60.0001 32.1415 60.0001H48.4082C49.6415 60.0001 50.8749 59.8001 52.0749 59.4667L73.6415 53.3334Z" fill="white"/>
</svg>
