<svg width="81" height="80" viewBox="0 0 81 80" fill="none" xmlns="http://www.w3.org/2000/svg">
<path d="M52.8082 63.7667C50.0415 63.7667 47.8082 60.9667 47.8082 57.5C47.8082 54.0667 50.0415 51.2667 52.8082 51.2667C55.5748 51.2667 57.8082 54.0667 57.8082 57.5C57.8082 60.9667 55.5748 63.7667 52.8082 63.7667ZM40.3082 37.5C36.1748 37.5 32.8081 34.7 32.8081 31.2667C32.8081 27.8 36.1748 25 40.3082 25C44.4415 25 47.8082 27.8 47.8082 31.2667C47.8082 34.7 44.4415 37.5 40.3082 37.5ZM27.8081 63.7667C25.0415 63.7667 22.8081 60.9667 22.8081 57.5C22.8081 54.0667 25.0415 51.2667 27.8081 51.2667C30.5748 51.2667 32.8081 54.0667 32.8081 57.5C32.8081 60.9667 30.5748 63.7667 27.8081 63.7667ZM40.3082 27.5C41.6748 27.5 42.8082 28.6333 42.8082 30C42.8082 31.3667 41.6748 32.5 40.3082 32.5C38.9415 32.5 37.8082 31.3667 37.8082 30C37.8082 28.6333 38.9415 27.5 40.3082 27.5ZM62.8082 40C61.7415 40 60.7082 40.2333 59.7748 40.6667C58.1748 38.6333 56.0082 36.9 53.4082 35.5667C55.3082 32.9 56.4415 29.6667 56.4415 26.1667V25.9667C60.0748 25.2 62.8082 21.9667 62.8082 18.0667C62.8082 13.6333 59.1748 10 54.7415 10C52.4415 10 50.3082 10.9667 48.9081 12.5C46.3369 10.8673 43.354 10.0002 40.3082 10.0002C37.2623 10.0002 34.2794 10.8673 31.7081 12.5C30.3081 10.9667 28.1748 10 25.8748 10C21.4415 10 17.8081 13.6333 17.8081 18.0667C17.8081 21.9333 20.5415 25.1667 24.1415 25.9667V26.1667C24.1415 29.6667 25.3082 32.9333 27.1748 35.5667C24.6082 36.9 22.4415 38.6333 20.8415 40.6667C19.7024 40.1535 18.4527 39.9344 17.207 40.0294C15.9612 40.1244 14.7592 40.5305 13.7111 41.2105C12.663 41.8904 11.8022 42.8225 11.2077 43.9214C10.6132 45.0202 10.3039 46.2506 10.3081 47.5C10.3081 51.6667 13.6415 55 17.8081 55H18.0081C17.8748 55.8 17.8081 56.6667 17.8081 57.5C17.8081 64.4 22.2748 70 27.8081 70C31.1748 70 34.1415 67.9 35.9748 64.7C37.3748 64.9 38.8082 65 40.3082 65C41.8082 65 43.2415 64.9 44.6415 64.7C46.4748 67.9 49.4415 70 52.8082 70C58.3415 70 62.8082 64.4 62.8082 57.5C62.8082 56.6667 62.7415 55.8 62.6082 55H62.8082C66.9748 55 70.3082 51.6667 70.3082 47.5C70.3082 43.3333 66.9748 40 62.8082 40Z" fill="white"/>
</svg>
