<svg width="81" height="80" viewBox="0 0 81 80" fill="none" xmlns="http://www.w3.org/2000/svg">
<path d="M54.4414 6.66675H26.1747C16.9747 6.66675 13.6414 10.0001 13.6414 19.3667V60.6334C13.6414 70.0001 16.9747 73.3334 26.1747 73.3334H54.408C63.6414 73.3334 66.9747 70.0001 66.9747 60.6334V19.3667C66.9747 10.0001 63.6414 6.66675 54.4414 6.66675ZM40.308 64.3334C37.108 64.3334 34.4747 61.7001 34.4747 58.5001C34.4747 55.3001 37.108 52.6668 40.308 52.6668C43.508 52.6668 46.1414 55.3001 46.1414 58.5001C46.1414 61.7001 43.508 64.3334 40.308 64.3334ZM46.9747 20.8334H33.6414C32.2747 20.8334 31.1414 19.7001 31.1414 18.3334C31.1414 16.9667 32.2747 15.8334 33.6414 15.8334H46.9747C48.3414 15.8334 49.4747 16.9667 49.4747 18.3334C49.4747 19.7001 48.3414 20.8334 46.9747 20.8334Z" fill="white"/>
</svg>
