<svg width="80" height="80" viewBox="0 0 80 80" fill="none" xmlns="http://www.w3.org/2000/svg">
<path d="M58.5334 6.6665H21.3667C13.2667 6.6665 6.66675 13.2665 6.66675 21.3665V43.0332V43.6998C6.66675 51.8332 13.2667 58.3998 21.3667 58.3998H34.1667C36.0001 58.3998 37.5001 59.8998 37.5001 61.7332V64.9665C37.5001 66.7998 36.0001 68.2998 34.1667 68.2998H26.1001C24.7334 68.2998 23.6001 69.4332 23.6001 70.7998C23.6001 72.1665 24.7001 73.3332 26.1001 73.3332H53.9334C55.3001 73.3332 56.4334 72.1998 56.4334 70.8332C56.4334 69.4665 55.3001 68.3332 53.9334 68.3332H45.8667C44.0334 68.3332 42.5334 66.8332 42.5334 64.9998V61.7665C42.5334 59.9332 44.0334 58.4332 45.8667 58.4332H58.5667C66.7001 58.4332 73.2667 51.8332 73.2667 43.7332V43.0665V21.3998C73.2334 13.2665 66.6334 6.6665 58.5334 6.6665Z" fill="white"/>
</svg>
