<svg width="81" height="80" viewBox="0 0 81 80" fill="none" xmlns="http://www.w3.org/2000/svg">
<path d="M23.6414 16.6667C23.6414 11.1334 28.1081 6.66675 33.6414 6.66675H46.9748C52.5081 6.66675 56.9748 11.1334 56.9748 16.6667C56.9748 18.5001 55.4748 20.0001 53.6414 20.0001H26.9748C25.1414 20.0001 23.6414 18.5001 23.6414 16.6667Z" fill="white"/>
<path d="M59.4748 50.0001C59.4748 51.3667 58.3414 52.5001 56.9748 52.5001H53.6414V63.3334C53.6414 68.8667 49.1748 73.3334 43.6414 73.3334H36.9748C31.4414 73.3334 26.9748 68.8667 26.9748 63.3334V52.5001H23.6414C22.2748 52.5001 21.1414 51.3667 21.1414 50.0001C21.1414 48.6334 22.2748 47.5001 23.6414 47.5001H56.9748C58.3414 47.5001 59.4748 48.6334 59.4748 50.0001Z" fill="white"/>
<path d="M60.3081 23.3334H20.3081C13.6414 23.3334 10.3081 26.6667 10.3081 33.3334V50.0001C10.3081 56.6667 13.6414 60.0001 20.3081 60.0001H22.8414C23.2833 60.0001 23.6414 59.6419 23.6414 59.2001V56.6334C23.6414 56.1916 23.2813 55.8392 22.8436 55.7783C20.0152 55.3843 17.8081 52.9297 17.8081 50.0001C17.8081 46.8001 20.4414 44.1667 23.6414 44.1667H56.9748C60.1748 44.1667 62.8081 46.8001 62.8081 50.0001C62.8081 52.9297 60.601 55.3843 57.7726 55.7783C57.335 55.8392 56.9748 56.1916 56.9748 56.6334V59.2001C56.9748 59.6419 57.3329 60.0001 57.7748 60.0001H60.3081C66.9748 60.0001 70.3081 56.6667 70.3081 50.0001V33.3334C70.3081 26.6667 66.9748 23.3334 60.3081 23.3334ZM33.6414 39.1667H23.6414C22.2748 39.1667 21.1414 38.0334 21.1414 36.6667C21.1414 35.3001 22.2748 34.1667 23.6414 34.1667H33.6414C35.0081 34.1667 36.1414 35.3001 36.1414 36.6667C36.1414 38.0334 35.0081 39.1667 33.6414 39.1667Z" fill="white"/>
</svg>
