<svg width="81" height="80" viewBox="0 0 81 80" fill="none" xmlns="http://www.w3.org/2000/svg">
<path fill-rule="evenodd" clip-rule="evenodd" d="M14.2148 10.5732C10.3081 14.4765 10.3081 20.7632 10.3081 33.3332V46.6665C10.3081 59.2365 10.3081 65.5232 14.2148 69.4265C18.1181 73.3332 24.4048 73.3332 36.9748 73.3332H43.6414C56.2114 73.3332 62.4981 73.3332 66.4014 69.4265C70.3081 65.5232 70.3081 59.2365 70.3081 46.6665V33.3332C70.3081 20.7632 70.3081 14.4765 66.4014 10.5732C62.4981 6.6665 56.2114 6.6665 43.6414 6.6665H36.9748C24.4048 6.6665 18.1181 6.6665 14.2148 10.5732ZM42.8081 19.9998C42.8081 19.3368 42.5447 18.7009 42.0759 18.2321C41.607 17.7632 40.9711 17.4998 40.3081 17.4998C39.6451 17.4998 39.0092 17.7632 38.5403 18.2321C38.0715 18.7009 37.8081 19.3368 37.8081 19.9998V24.1665H33.6414C32.9784 24.1665 32.3425 24.4299 31.8737 24.8987C31.4048 25.3676 31.1414 26.0035 31.1414 26.6665C31.1414 27.3295 31.4048 27.9654 31.8737 28.4343C32.3425 28.9031 32.9784 29.1665 33.6414 29.1665H37.8081V33.3332C37.8081 33.9962 38.0715 34.6321 38.5403 35.1009C39.0092 35.5698 39.6451 35.8332 40.3081 35.8332C40.9711 35.8332 41.607 35.5698 42.0759 35.1009C42.5447 34.6321 42.8081 33.9962 42.8081 33.3332V29.1665H46.9748C47.6378 29.1665 48.2737 28.9031 48.7425 28.4343C49.2114 27.9654 49.4748 27.3295 49.4748 26.6665C49.4748 26.0035 49.2114 25.3676 48.7425 24.8987C48.2737 24.4299 47.6378 24.1665 46.9748 24.1665H42.8081V19.9998ZM26.9748 44.1665C26.3117 44.1665 25.6758 44.4299 25.207 44.8987C24.7382 45.3676 24.4748 46.0035 24.4748 46.6665C24.4748 47.3295 24.7382 47.9654 25.207 48.4343C25.6758 48.9031 26.3117 49.1665 26.9748 49.1665H53.6414C54.3045 49.1665 54.9404 48.9031 55.4092 48.4343C55.878 47.9654 56.1414 47.3295 56.1414 46.6665C56.1414 46.0035 55.878 45.3676 55.4092 44.8987C54.9404 44.4299 54.3045 44.1665 53.6414 44.1665H26.9748ZM30.3081 57.4998C29.6451 57.4998 29.0092 57.7632 28.5403 58.2321C28.0715 58.7009 27.8081 59.3368 27.8081 59.9998C27.8081 60.6629 28.0715 61.2988 28.5403 61.7676C29.0092 62.2365 29.6451 62.4998 30.3081 62.4998H50.3081C50.9711 62.4998 51.607 62.2365 52.0759 61.7676C52.5447 61.2988 52.8081 60.6629 52.8081 59.9998C52.8081 59.3368 52.5447 58.7009 52.0759 58.2321C51.607 57.7632 50.9711 57.4998 50.3081 57.4998H30.3081Z" fill="white"/>
</svg>
