<svg width="80" height="80" viewBox="0 0 80 80" fill="none" xmlns="http://www.w3.org/2000/svg">
<path d="M7.99984 40.4998C11.4998 30.5332 21.5165 23.3332 33.3332 23.3332C46.5232 23.3332 57.4732 32.3032 59.6198 44.0865C57.4365 43.1665 54.6032 42.4032 51.7365 41.9265C45.9532 40.9665 41.5365 42.9665 37.7532 44.6932L37.7165 44.7098C33.8698 46.4665 30.6798 47.9232 26.4832 47.4498C23.1398 47.0732 20.1298 46.0165 17.3032 44.7632C16.0232 44.1965 14.8065 43.6032 13.6032 43.0132L13.1998 42.8165C11.9107 42.1721 10.5999 41.5717 9.26984 41.0165L7.99984 40.4998Z" fill="white"/>
<path d="M6.84317 45.4265C6.72536 46.3853 6.66636 47.3505 6.6665 48.3165C6.6665 54.6998 9.21984 60.5232 13.4265 64.9398C14.9265 66.5165 15.6765 67.3032 18.8198 68.6532C21.9665 69.9998 24.1332 69.9998 28.4732 69.9998H38.1932C42.5332 69.9998 44.6998 69.9998 47.8465 68.6532C50.9898 67.3032 51.7398 66.5165 53.2432 64.9398C57.1032 60.8832 59.5698 55.6398 59.9498 49.8732L58.7865 49.2265C57.2165 48.3532 54.2732 47.4165 50.9165 46.8598C46.7865 46.1732 43.6365 47.5032 39.8298 49.2432L39.4632 49.4098C35.8165 51.0765 31.5098 53.0465 25.9232 52.4198C21.8732 51.9632 18.3398 50.6898 15.2765 49.3332C13.9098 48.7265 12.6098 48.0932 11.4098 47.5065L11.0098 47.3098C9.82443 46.716 8.6193 46.1623 7.3965 45.6498L6.84317 45.4265ZM41.8665 8.13317C43.0465 9.30984 43.2765 11.0665 43.3232 14.1665H47.7332C50.7081 14.1667 53.6422 14.8594 56.3032 16.1898L59.0898 17.5832C61.3598 15.7532 65.0898 15.6265 68.3332 17.4998C72.3198 19.7998 74.0598 24.2498 72.2165 27.4398C70.3765 30.6265 65.6498 31.3465 61.6665 29.0465C58.8532 27.4198 57.1565 24.7232 57.0532 22.1565L54.0665 20.6632C52.1001 19.6796 49.9318 19.1672 47.7332 19.1665H43.3332V21.6132C40.1084 20.5405 36.7316 19.9957 33.3332 19.9998C29.8332 19.9998 26.4665 20.5665 23.3332 21.6132V19.1665H23.6898C24.0132 19.1698 24.3898 19.1732 24.7098 19.1665C25.1732 19.1498 25.7998 19.1065 26.4298 18.9132C27.1032 18.7032 27.8865 18.2865 28.4565 17.4632C29.0098 16.6698 29.1665 15.7798 29.1665 14.9998C29.1665 14.2198 29.0098 13.3298 28.4565 12.5332C27.9627 11.8355 27.2472 11.3256 26.4265 11.0865C25.8669 10.9269 25.2884 10.8428 24.7065 10.8365C24.3688 10.8293 24.0309 10.8282 23.6932 10.8332H23.5665C23.7632 9.65317 24.1265 8.79984 24.7932 8.13317C26.2665 6.6665 28.6198 6.6665 33.3332 6.6665C38.0465 6.6665 40.4032 6.6665 41.8665 8.13317Z" fill="white"/>
</svg>
