<svg width="515" height="515" viewBox="0 0 515 515" fill="none" xmlns="http://www.w3.org/2000/svg">
<path d="M310.151 43.7388L209.498 43.7388C187.226 43.7388 169.023 61.7278 169.023 83.9999L169.023 104.13C169.023 126.403 187.012 144.392 209.284 144.392H310.151C332.423 144.392 350.412 126.403 350.412 104.13L350.412 83.9999C350.626 61.7278 332.423 43.7388 310.151 43.7388Z" fill="#E0E1E6"/>
<path d="M372.042 104.13C372.042 138.181 344.202 166.021 310.151 166.021H209.499C175.448 166.021 147.608 138.181 147.608 104.13C147.608 92.1378 134.758 84.6424 124.051 90.2104C93.8549 106.272 73.296 138.181 73.296 174.802L73.296 376.321C73.296 429.003 116.341 472.048 169.023 472.048L350.627 472.048C403.309 472.048 446.354 429.003 446.354 376.321V174.802C446.354 138.181 425.795 106.272 395.599 90.2104C384.891 84.6423 372.042 92.1378 372.042 104.13ZM267.963 363.9H174.163C165.383 363.9 158.101 356.619 158.101 347.839C158.101 339.058 165.383 331.777 174.163 331.777H267.963C276.743 331.777 284.024 339.058 284.024 347.839C284.024 356.619 276.743 363.9 267.963 363.9ZM324.071 278.238L174.163 278.238C165.383 278.238 158.101 270.957 158.101 262.177C158.101 253.396 165.383 246.115 174.163 246.115L324.071 246.115C332.852 246.115 340.133 253.396 340.133 262.177C340.133 270.957 332.852 278.238 324.071 278.238Z" fill="#E0E1E6"/>
<path d="M307.434 42.9526L206.781 42.9526C184.509 42.9526 166.306 60.9416 166.306 83.2137L166.306 103.344C166.306 125.616 184.295 143.605 206.567 143.605H307.434C329.706 143.605 347.695 125.616 347.695 103.344L347.695 83.2137C347.909 60.9417 329.706 42.9526 307.434 42.9526Z" fill="#EBECEF"/>
<path d="M369.325 103.344C369.325 137.395 341.485 165.235 307.434 165.235H206.781C172.731 165.235 144.891 137.395 144.891 103.344C144.891 91.3516 132.041 83.8562 121.334 89.4242C91.1378 105.486 70.579 137.395 70.579 174.015L70.579 375.535C70.579 428.217 113.624 471.262 166.306 471.262L347.91 471.262C400.592 471.262 443.637 428.217 443.637 375.535V174.015C443.637 137.395 423.078 105.486 392.882 89.4242C382.174 83.8562 369.325 91.3516 369.325 103.344ZM265.246 363.114H171.446C162.666 363.114 155.384 355.833 155.384 347.053C155.384 338.272 162.666 330.991 171.446 330.991H265.246C274.026 330.991 281.307 338.272 281.307 347.053C281.307 355.833 274.026 363.114 265.246 363.114ZM321.354 277.452L171.446 277.452C162.666 277.452 155.384 270.171 155.384 261.391C155.384 252.61 162.666 245.329 171.446 245.329L321.354 245.329C330.135 245.329 337.416 252.61 337.416 261.391C337.416 270.171 330.135 277.452 321.354 277.452Z" fill="#EBECEF"/>
</svg>
