<svg width="699" height="699" viewBox="0 0 699 699" fill="none" xmlns="http://www.w3.org/2000/svg">
<path d="M498.55 187.841L410.398 139.259C390.892 128.509 366.267 135.478 355.517 154.984L345.801 172.614C335.05 192.12 342.123 216.558 361.629 227.308L449.968 275.993C469.474 286.743 493.912 279.671 504.662 260.165L514.378 242.535C525.316 223.132 518.056 198.591 498.55 187.841Z" fill="#E0E1E6"/>
<path d="M523.605 270.605C507.17 300.427 469.35 311.372 439.528 294.936L351.376 246.354C321.554 229.919 310.61 192.099 327.045 162.278C332.833 151.774 325.198 139.008 313.132 138.716C278.934 138.208 245.527 156.231 227.852 188.304L130.584 364.795C105.156 410.934 122.079 469.41 168.218 494.838L327.267 582.492C373.406 607.92 431.881 590.998 457.309 544.859L554.577 368.367C572.252 336.295 569.648 298.425 550.955 269.784C544.265 259.739 529.393 260.102 523.605 270.605ZM307.069 447.876L224.919 402.602C217.229 398.364 214.367 388.473 218.605 380.783C222.843 373.093 232.734 370.231 240.424 374.469L322.574 419.743C330.264 423.981 333.127 433.872 328.889 441.562C324.651 449.252 314.759 452.114 307.069 447.876ZM397.556 399.935L266.265 327.579C258.576 323.341 255.713 313.45 259.951 305.76C264.189 298.07 274.08 295.208 281.77 299.446L413.061 371.802C420.75 376.04 423.613 385.931 419.375 393.621C415.137 401.311 405.246 404.173 397.556 399.935Z" fill="#E0E1E6"/>
<path d="M496.55 185.841L408.398 137.259C388.892 126.509 364.267 133.478 353.517 152.984L343.8 170.614C333.05 190.12 340.122 214.558 359.628 225.308L447.968 273.993C467.474 284.743 491.911 277.671 502.662 258.165L512.378 240.535C523.315 221.132 516.056 196.591 496.55 185.841Z" fill="#EBECEF"/>
<path d="M521.605 268.605C505.17 298.427 467.35 309.372 437.528 292.936L349.376 244.354C319.554 227.919 308.609 190.099 325.045 160.278C330.833 149.774 323.197 137.008 311.132 136.716C276.934 136.208 243.527 154.231 225.851 186.304L128.584 362.795C103.156 408.934 120.079 467.41 166.218 492.838L325.267 580.492C371.406 605.92 429.881 588.998 455.309 542.859L552.577 366.367C570.252 334.295 567.648 296.425 548.955 267.784C542.265 257.739 527.393 258.102 521.605 268.605ZM305.069 445.876L222.919 400.602C215.229 396.364 212.367 386.473 216.605 378.783C220.843 371.093 230.734 368.231 238.424 372.469L320.574 417.743C328.264 421.981 331.126 431.872 326.888 439.562C322.65 447.252 312.759 450.114 305.069 445.876ZM395.556 397.935L264.265 325.579C256.575 321.341 253.713 311.45 257.951 303.76C262.189 296.07 272.08 293.208 279.77 297.446L411.06 369.802C418.75 374.04 421.613 383.931 417.375 391.621C413.137 399.311 403.245 402.173 395.556 397.935Z" fill="#EBECEF"/>
</svg>
