<svg width="1005" height="1005" viewBox="0 0 705 705" fill="none"
     xmlns="http://www.w3.org/2000/svg">
<path d="M269.695 219.258C181.808 271.743 152.997 385.978 205.482 473.865C257.966 561.753 372.312 590.747 460.199 538.262C548.086 485.778 576.897 371.542 524.412 283.655C471.927 195.768 357.582 166.773 269.695 219.258ZM375.168 364.549C379.67 372.088 377.152 382.073 369.613 386.574C362.075 391.076 352.09 388.558 347.589 381.02L292.688 289.087C288.186 281.549 290.705 271.564 298.243 267.063C305.781 262.561 315.766 265.079 320.268 272.617L375.168 364.549Z" fill="#E0E1E6"/>
<path d="M309.655 165.462L203.382 228.926C196.027 233.319 186.63 230.948 182.238 223.594C177.846 216.239 180.106 206.658 187.461 202.266L293.734 138.801C301.089 134.409 310.486 136.779 314.878 144.134C319.27 151.488 317.01 161.07 309.655 165.462Z" fill="#E0E1E6"/>
<path d="M271.695 217.258C183.807 269.743 154.997 383.978 207.481 471.865C259.966 559.753 374.312 588.747 462.199 536.262C550.086 483.778 578.897 369.542 526.412 281.655C473.927 193.768 359.582 164.773 271.695 217.258ZM377.168 362.549C381.67 370.088 379.152 380.073 371.613 384.574C364.075 389.076 354.09 386.558 349.588 379.02L294.688 287.087C290.186 279.549 292.704 269.564 300.243 265.063C307.781 260.561 317.766 263.079 322.268 270.617L377.168 362.549Z" fill="#EBECEF"/>
<path d="M311.655 163.462L205.382 226.926C198.027 231.319 188.63 228.948 184.238 221.594C179.846 214.239 182.106 204.658 189.461 200.266L295.734 136.801C303.089 132.409 312.486 134.779 316.878 142.134C321.27 149.488 319.01 159.07 311.655 163.462Z" fill="#EBECEF"/>
</svg>
