<svg width="515" height="515" viewBox="0 0 515 515" fill="none" xmlns="http://www.w3.org/2000/svg">
<path d="M254.656 100.686C152.289 100.686 68.9833 183.992 68.9833 286.358C68.9833 388.724 152.29 472.245 254.656 472.245C357.022 472.245 440.328 388.939 440.328 286.573C440.328 184.206 357.022 100.686 254.656 100.686ZM270.717 279.505C270.717 288.286 263.436 295.567 254.656 295.567C245.875 295.567 238.594 288.286 238.594 279.505L238.594 172.428C238.594 163.648 245.875 156.366 254.656 156.366C263.436 156.366 270.717 163.648 270.717 172.428V279.505Z" fill="#E0E1E6"/>
<path d="M316.546 74.9875L192.765 74.9875C184.199 74.9875 177.346 68.1346 177.346 59.5684C177.346 51.0022 184.199 43.9351 192.765 43.9351L316.546 43.9351C325.112 43.9351 331.965 50.788 331.965 59.3542C331.965 67.9204 325.112 74.9875 316.546 74.9875Z" fill="#E0E1E6"/>
<path d="M257.398 99.9942C155.032 99.9942 71.7257 183.3 71.7257 285.666C71.7257 388.032 155.032 471.553 257.398 471.553C359.764 471.553 443.07 388.247 443.07 285.881C443.07 183.515 359.764 99.9942 257.398 99.9942ZM273.46 278.814C273.46 287.594 266.178 294.875 257.398 294.875C248.618 294.875 241.336 287.594 241.336 278.814L241.336 171.736C241.336 162.956 248.618 155.674 257.398 155.674C266.178 155.674 273.46 162.956 273.46 171.736V278.814Z" fill="#EBECEF"/>
<path d="M319.289 74.2956L195.507 74.2956C186.941 74.2956 180.088 67.4427 180.088 58.8765C180.088 50.3103 186.941 43.2432 195.507 43.2432L319.289 43.2432C327.855 43.2432 334.708 50.0961 334.708 58.6623C334.708 67.2285 327.855 74.2956 319.289 74.2956Z" fill="#EBECEF"/>
</svg>
