<svg width="150" height="50" viewBox="0 0 150 50" fill="none" xmlns="http://www.w3.org/2000/svg">
<g clip-path="url(#clip0_5790_6714)">
<path d="M23.4521 0.658203C18.8133 0.658906 14.2787 2.07093 10.4219 4.71573C6.56507 7.36052 3.55924 11.1193 1.78447 15.5168C0.00969987 19.9143 -0.454305 24.7529 0.451126 29.421C1.35655 34.089 3.59076 38.3768 6.87122 41.7422C10.1517 45.1074 14.3311 47.3991 18.8809 48.3274C23.4308 49.2557 28.1467 48.7789 32.4325 46.9573C36.7183 45.1357 40.3813 42.0511 42.9585 38.0936C45.5357 34.1361 46.9112 29.4835 46.9112 24.7239C46.9039 18.3429 44.4299 12.2256 40.032 7.71393C35.6339 3.20227 29.6713 0.664788 23.4521 0.658203ZM26.1784 34.1177C23.8364 37.1641 20.4288 39.1532 16.6797 39.6623C16.6797 39.6623 19.4095 38.596 22.0007 34.2136C24.4811 29.5754 24.6924 26.071 27.0271 23.0604C30.9728 17.9708 36.0582 19.1757 36.0582 19.1757C35.4726 17.2707 33.7475 16.0978 31.2984 16.2079C30.5017 13.56 27.0549 12.5791 24.5988 13.8906C22.7732 14.8608 20.8125 16.2683 18.6232 16.2222C18.3791 16.2274 18.135 16.2168 17.8922 16.1902C16.5268 15.9743 15.267 15.3079 14.3034 14.2922C14.1509 16.4781 15.5228 18.5253 17.1439 19.2077C19.9153 20.3699 21.8725 18.9589 21.8725 18.9589C20.1221 23.6945 16.9732 27.7506 12.8658 30.5599C8.24117 28.2106 5.19274 23.9312 4.55188 18.0348C6.09216 13.4577 9.1659 9.59014 13.2257 7.1209C17.2854 4.65168 22.0676 3.74109 26.7207 4.55132C31.3736 5.36157 35.5951 7.84002 38.6336 11.5453C41.672 15.2506 43.3299 19.942 43.312 24.7843C43.312 25.0118 43.312 25.2357 43.312 25.4631C41.4026 28.2748 38.8293 30.5435 35.8328 32.057C32.8363 33.5706 29.5146 34.2797 26.1784 34.1177Z" fill="white"/>
<path d="M93.1677 26.735C93.1677 28.5902 92.7058 30.0119 91.782 31.0001C90.8583 31.9881 89.6239 32.4751 88.0789 32.4609C86.6932 32.4609 85.6216 32.039 84.8643 31.1955C84.1068 30.3519 83.7291 29.0855 83.7314 27.396V18.1729H79.4048V27.9469C79.4048 30.7572 80.1183 32.8636 81.5456 34.2664C82.9728 35.669 84.9254 36.3705 87.4033 36.3705C88.511 36.3794 89.6096 36.1682 90.6389 35.7485C91.6032 35.349 92.4675 34.7319 93.1677 33.943V35.2651C93.1677 37.2152 92.7208 38.6606 91.8271 39.6013C90.9333 40.5419 89.5373 41.0159 87.639 41.023C86.6116 41.0289 85.5936 40.8222 84.646 40.4152C83.5912 40.0606 82.612 39.5034 81.7603 38.7731L79.8101 42.1282C80.9254 43.0722 82.2247 43.7605 83.6206 44.1471C84.9937 44.6201 86.4329 44.8602 87.8815 44.858C94.304 44.858 97.5152 41.5039 97.5152 34.7959V18.1729H93.1677V26.735Z" fill="white"/>
<path d="M121.438 18.1729L114.52 30.0901L107.911 18.1729H103.352V37.2271H107.319V24.5598L113.474 35.2296H115.352L121.615 24.5954V37.2271H125.543L125.509 18.1729H121.438Z" fill="white"/>
<path d="M148.476 22.6664C147.635 21.1981 146.413 19.9993 144.946 19.2045C143.366 18.3844 141.621 17.957 139.85 17.957C138.08 17.957 136.334 18.3844 134.754 19.2045C133.287 19.9982 132.063 21.1973 131.224 22.6664C130.366 24.194 129.927 25.9323 129.956 27.6956C129.928 29.4655 130.366 31.2103 131.224 32.7461C132.059 34.2227 133.283 35.4285 134.754 36.2257C136.334 37.0459 138.08 37.4732 139.85 37.4732C141.621 37.4732 143.366 37.0459 144.946 36.2257C146.417 35.4273 147.639 34.2218 148.476 32.7461C149.334 31.2103 149.772 29.4655 149.743 27.6956C149.772 25.9323 149.334 24.194 148.476 22.6664ZM143.796 32.0139C142.735 33.0676 141.316 33.6566 139.839 33.6566C138.363 33.6566 136.945 33.0676 135.884 32.0139C134.851 30.9193 134.337 29.4798 134.338 27.6956C134.341 25.9114 134.856 24.4719 135.884 23.3772C136.946 22.3261 138.364 21.7387 139.839 21.7387C141.316 21.7387 142.734 22.3261 143.796 23.3772C144.839 24.4719 145.362 25.9114 145.362 27.6956C145.362 29.4798 144.839 30.9193 143.796 32.0139Z" fill="white"/>
<path d="M67.227 24.2338L74.7546 13.1943H69.4613L64.3761 20.5943L59.2872 13.1943H54.0633L61.6601 24.4151L53.4121 36.4284H58.6325L64.3761 28.1256L70.1508 36.4284H72.8908V37.2244H72.8944V42.1435H76.7603V33.3006H73.3932L67.227 24.2338Z" fill="white"/>
</g>
<defs>
<clipPath id="clip0_5790_6714">
<rect width="150" height="48.6842" fill="white" transform="translate(0 0.658203)"/>
</clipPath>
</defs>
</svg>
